<svg id="Layer_1" data-name="Layer 1" xmlns="http://www.w3.org/2000/svg" xmlns:xlink="http://www.w3.org/1999/xlink" viewBox="0 0 24 24"><defs><style>.cls-1{fill:url(#linear-gradient);}</style><linearGradient id="linear-gradient" x1="3.63" y1="20.37" x2="20.37" y2="3.63" gradientUnits="userSpaceOnUse"><stop offset="0" stop-color="#00062a"/><stop offset="0.5" stop-color="#2accff"/><stop offset="1" stop-color="#d8ec13"/></linearGradient></defs><title>logo</title><path class="cls-1" d="M12,1.53a.36.36,0,0,0,.36-.35.36.36,0,0,0-.71,0A.35.35,0,0,0,12,1.53Zm-1.11-1a.18.18,0,1,0-.18-.18A.18.18,0,0,0,10.84.53ZM9.91,1.74a.35.35,0,0,0,.28-.41.36.36,0,0,0-.42-.28.35.35,0,0,0-.27.42A.34.34,0,0,0,9.91,1.74ZM8.62,1A.18.18,0,0,0,8.77.77.19.19,0,0,0,8.55.62a.18.18,0,0,0-.14.22A.17.17,0,0,0,8.62,1ZM8,2.35a.36.36,0,0,0-.27-.66.36.36,0,0,0-.19.47A.35.35,0,0,0,8,2.35ZM6.64,1.61a.2.2,0,0,0-.24-.1.19.19,0,0,0-.1.24.18.18,0,0,0,.24.1A.18.18,0,0,0,6.64,1.61ZM6.15,3.32a.35.35,0,0,0,.09-.49.35.35,0,1,0-.58.4A.35.35,0,0,0,6.15,3.32ZM4.66,3.11a.17.17,0,0,0,0-.25.18.18,0,0,0-.25,0,.19.19,0,0,0,0,.25A.17.17,0,0,0,4.66,3.11ZM4.57,4.63a.37.37,0,0,0,0-.5.35.35,0,1,0,0,.5Zm-1.5.08a.18.18,0,0,0,0-.25.19.19,0,0,0-.26,0,.18.18,0,0,0,0,.25A.19.19,0,0,0,3.07,4.71Zm.2,1.51a.35.35,0,0,0-.1-.49.35.35,0,0,0-.39.59A.35.35,0,0,0,3.27,6.22ZM1.82,6.6a.19.19,0,0,0-.05-.26.19.19,0,0,0-.25,0,.18.18,0,0,0,.05.26A.19.19,0,0,0,1.82,6.6ZM1.66,7.77a.35.35,0,0,0,.19.46A.35.35,0,0,0,2.31,8a.35.35,0,1,0-.65-.27ZM1,8.69a.18.18,0,0,0-.1-.24.17.17,0,0,0-.23.1.17.17,0,0,0,.09.23A.18.18,0,0,0,1,8.69Zm.35,1.59A.35.35,0,0,0,1.73,10a.36.36,0,0,0-.28-.41.35.35,0,1,0-.14.69Zm-1,.77a.19.19,0,0,0,.22-.15.18.18,0,0,0-.15-.21.18.18,0,0,0-.21.14A.18.18,0,0,0,.31,11.05Zm.52,1a.35.35,0,0,0,.35.35.36.36,0,0,0,0-.71A.35.35,0,0,0,.83,12.05ZM.35,13a.18.18,0,1,0,.18.18A.18.18,0,0,0,.35,13Zm1.39,1.11a.35.35,0,0,0-.41-.28.36.36,0,0,0-.28.42.35.35,0,0,0,.42.27A.34.34,0,0,0,1.74,14.09Zm-1,1.14a.19.19,0,0,0-.15.22.18.18,0,0,0,.22.14A.17.17,0,0,0,1,15.38.18.18,0,0,0,.77,15.23Zm1.12.63a.35.35,0,0,0-.2.46.36.36,0,0,0,.47.19.35.35,0,0,0,.19-.46A.35.35,0,0,0,1.89,15.86ZM1.51,17.6a.19.19,0,0,0,.24.1.18.18,0,0,0,.1-.24.18.18,0,0,0-.24-.1A.2.2,0,0,0,1.51,17.6Zm1.32.16a.35.35,0,1,0,.4.58.35.35,0,1,0-.4-.58Zm0,1.53a.18.18,0,0,0,0,.25.19.19,0,0,0,.25.05.18.18,0,0,0-.2-.3Zm1.77.14a.37.37,0,0,0-.5,0,.35.35,0,1,0,.5,0Zm-.17,1.5a.19.19,0,0,0,0,.26.18.18,0,0,0,.25,0,.19.19,0,0,0,0-.26A.18.18,0,0,0,4.46,20.93Zm1.76-.2a.35.35,0,0,0-.49.1.35.35,0,0,0,.59.39A.35.35,0,0,0,6.22,20.73Zm.12,1.5a.19.19,0,0,0,0,.25.18.18,0,0,0,.26-.05.18.18,0,0,0-.31-.2ZM8,21.69a.35.35,0,1,0,.19.46A.35.35,0,0,0,8,21.69Zm.41,1.45a.17.17,0,0,0,.1.23.17.17,0,0,0,.23-.09A.18.18,0,0,0,8.69,23,.18.18,0,0,0,8.45,23.14ZM10,22.27a.36.36,0,0,0-.41.28.35.35,0,1,0,.41-.28Zm.9,1.2a.18.18,0,0,0-.21.15.18.18,0,0,0,.14.21.18.18,0,0,0,.22-.14A.19.19,0,0,0,10.9,23.47Zm1.15-1a.36.36,0,0,0-.36.35.36.36,0,0,0,.71,0A.35.35,0,0,0,12.05,22.47Zm1.11,1a.18.18,0,1,0,.18.18A.18.18,0,0,0,13.16,23.47Zm.93-1.21a.35.35,0,0,0-.28.41.36.36,0,0,0,.42.28.35.35,0,0,0,.27-.42A.34.34,0,0,0,14.09,22.26Zm1.29.76a.18.18,0,0,0-.15.21.19.19,0,0,0,.22.15.18.18,0,0,0,.14-.22A.17.17,0,0,0,15.38,23Zm.67-1.37a.36.36,0,0,0,.27.66.36.36,0,0,0,.19-.47A.35.35,0,0,0,16.05,21.65Zm1.31.74a.2.2,0,0,0,.24.1.19.19,0,0,0,.1-.24.18.18,0,0,0-.24-.1A.18.18,0,0,0,17.36,22.39Zm.49-1.71a.35.35,0,0,0-.09.49.35.35,0,1,0,.58-.4A.35.35,0,0,0,17.85,20.68Zm1.49.21a.17.17,0,0,0-.05.25.18.18,0,0,0,.25.05.19.19,0,0,0,.05-.25A.17.17,0,0,0,19.34,20.89Zm.09-1.52a.37.37,0,0,0,0,.5.35.35,0,1,0,0-.5Zm1.5-.08a.18.18,0,0,0,0,.25.19.19,0,0,0,.26,0,.18.18,0,0,0,0-.25A.19.19,0,0,0,20.93,19.29Zm-.2-1.51a.35.35,0,0,0,.1.49.35.35,0,0,0,.39-.59A.35.35,0,0,0,20.73,17.78Zm1.45-.38a.19.19,0,0,0,.05.26.19.19,0,0,0,.25-.05.18.18,0,0,0-.05-.26A.19.19,0,0,0,22.18,17.4Zm.16-1.17a.35.35,0,0,0-.19-.46.35.35,0,0,0-.46.19.35.35,0,1,0,.65.27Zm.7-.92a.18.18,0,0,0,.1.24.17.17,0,0,0,.23-.1.17.17,0,0,0-.09-.23A.18.18,0,0,0,23,15.31Zm-.35-1.59a.35.35,0,0,0-.42.28.36.36,0,0,0,.28.41.35.35,0,1,0,.14-.69Zm1-.77a.19.19,0,0,0-.22.15.18.18,0,0,0,.15.21.18.18,0,0,0,.21-.14A.18.18,0,0,0,23.69,13Zm-1.22-1a.36.36,0,0,0,.35.36.36.36,0,0,0,0-.71A.35.35,0,0,0,22.47,12ZM23.65,11a.18.18,0,1,0-.18-.18A.18.18,0,0,0,23.65,11ZM22.26,9.91a.35.35,0,0,0,.41.28A.36.36,0,0,0,23,9.77a.35.35,0,0,0-.42-.27A.34.34,0,0,0,22.26,9.91Zm.9-1.5a.17.17,0,0,0-.14.21.18.18,0,0,0,.21.15.19.19,0,0,0,.15-.22A.18.18,0,0,0,23.16,8.41Zm-1.05-.27a.35.35,0,0,0,.2-.46.36.36,0,0,0-.47-.19.35.35,0,0,0-.19.46A.35.35,0,0,0,22.11,8.14Zm.38-1.74a.19.19,0,0,0-.24-.1.18.18,0,0,0-.1.24.18.18,0,0,0,.24.1A.2.2,0,0,0,22.49,6.4Zm-1.32-.16a.35.35,0,1,0-.4-.58.35.35,0,0,0,.4.58Zm0-1.53a.18.18,0,0,0,.05-.25.19.19,0,0,0-.25,0,.18.18,0,0,0,.2.3Zm-1.77-.14a.37.37,0,0,0,.5,0,.35.35,0,1,0-.5,0Zm.17-1.5a.19.19,0,0,0,0-.26.18.18,0,0,0-.25,0,.19.19,0,0,0,0,.26A.18.18,0,0,0,19.54,3.07Zm-1.76.2a.35.35,0,0,0,.49-.1.35.35,0,1,0-.59-.39A.35.35,0,0,0,17.78,3.27Zm-.12-1.5a.19.19,0,0,0-.05-.25.18.18,0,0,0-.26.05.18.18,0,0,0,.31.2ZM16,2.31a.35.35,0,1,0-.19-.46A.35.35,0,0,0,16,2.31ZM15.55.86a.17.17,0,0,0-.1-.23.17.17,0,0,0-.23.09.18.18,0,0,0,.09.24A.18.18,0,0,0,15.55.86ZM12.88,3.13a.56.56,0,1,0-.56-.56A.56.56,0,0,0,12.88,3.13Zm-1.75,0a.56.56,0,1,0-.66-.44A.56.56,0,0,0,11.13,3.13Zm-2.44,0A.56.56,0,1,0,9,2.44.55.55,0,0,0,8.69,3.17Zm-.89,1A.56.56,0,0,0,8,3.36a.57.57,0,0,0-.78-.15A.56.56,0,0,0,7,4,.55.55,0,0,0,7.8,4.14Zm-1.45,1a.56.56,0,1,0-.79,0A.56.56,0,0,0,6.35,5.11Zm-2,1.39a.55.55,0,0,0,.77-.16A.56.56,0,0,0,5,5.57a.57.57,0,0,0-.78.15A.57.57,0,0,0,4.34,6.5Zm-1.23.87a.56.56,0,1,0,1,.42.56.56,0,0,0-1-.42ZM2.82,9.85a.56.56,0,1,0-.44-.66A.56.56,0,0,0,2.82,9.85Zm-.25.71a.56.56,0,1,0,.56.56A.56.56,0,0,0,2.57,10.56ZM2,13.09a.56.56,0,1,0,.44-.66A.57.57,0,0,0,2,13.09Zm1.14,2.22a.56.56,0,1,0-.73-.3A.55.55,0,0,0,3.17,15.31Zm1,.89A.56.56,0,0,0,3.36,16a.57.57,0,0,0-.15.78A.56.56,0,0,0,4,17,.55.55,0,0,0,4.14,16.2Zm.18,1.45a.56.56,0,1,0,.79,0A.56.56,0,0,0,4.32,17.65Zm2.18,2a.55.55,0,0,0-.16-.77.56.56,0,0,0-.77.15.57.57,0,0,0,.15.78A.57.57,0,0,0,6.5,19.66Zm1.6.93a.56.56,0,0,0-.31-.73.56.56,0,0,0-.42,1A.56.56,0,0,0,8.1,20.59Zm1.75.59a.56.56,0,1,0-.66.44A.56.56,0,0,0,9.85,21.18Zm1.27-.31a.56.56,0,1,0,.56.56A.56.56,0,0,0,11.12,20.87Zm1.75,0a.56.56,0,1,0,.66.44A.56.56,0,0,0,12.87,20.87Zm2.44,0a.56.56,0,1,0-.3.73A.55.55,0,0,0,15.31,20.83Zm.89-1a.56.56,0,0,0-.16.78.57.57,0,0,0,.78.15A.56.56,0,0,0,17,20,.55.55,0,0,0,16.2,19.86Zm1.45-1a.56.56,0,1,0,.79,0A.56.56,0,0,0,17.65,18.89Zm2-1.39a.55.55,0,0,0-.77.16.56.56,0,0,0,.15.77.57.57,0,0,0,.78-.15A.57.57,0,0,0,19.66,17.5Zm1.23-.87a.56.56,0,1,0-1-.42.56.56,0,0,0,1,.42Zm.29-2.48a.56.56,0,1,0,.44.66A.56.56,0,0,0,21.18,14.15Zm.25-.71a.56.56,0,1,0-.56-.56A.56.56,0,0,0,21.43,13.44ZM22,10.91a.56.56,0,1,0-.44.66A.57.57,0,0,0,22,10.91ZM20.83,8.69a.56.56,0,1,0,.73.3A.55.55,0,0,0,20.83,8.69Zm-1-.89a.56.56,0,0,0,.78.16.57.57,0,0,0,.15-.78A.56.56,0,0,0,20,7,.55.55,0,0,0,19.86,7.8Zm-.18-1.45a.56.56,0,1,0-.79,0A.56.56,0,0,0,19.68,6.35Zm-2.18-2a.55.55,0,0,0,.16.77A.56.56,0,0,0,18.43,5a.57.57,0,0,0-.15-.78A.57.57,0,0,0,17.5,4.34Zm-1.6-.93a.56.56,0,0,0,.31.73.56.56,0,0,0,.42-1A.56.56,0,0,0,15.9,3.41Zm-1.75-.59a.56.56,0,1,0,.66-.44A.56.56,0,0,0,14.15,2.82ZM12,4.71a.61.61,0,0,0,.42-.23A.67.67,0,0,0,12.53,4a.63.63,0,0,0-.62-.56h-.07a.62.62,0,0,0,.07,1.24Zm-2.2-.26a.62.62,0,0,0,.59.44.58.58,0,0,0,.19,0,.63.63,0,0,0,.37-.31.64.64,0,0,0,0-.47.61.61,0,0,0-.6-.44l-.18,0A.62.62,0,0,0,9.77,4.45Zm-.88.9a.59.59,0,0,0,.29-.07.58.58,0,0,0,.3-.37.62.62,0,0,0-.05-.48.6.6,0,0,0-.54-.32.6.6,0,0,0-.3.07A.63.63,0,0,0,8.34,5,.62.62,0,0,0,8.89,5.35ZM7.53,6.1A.67.67,0,0,0,7.93,6,.63.63,0,0,0,8,5.08a.65.65,0,0,0-.48-.23.59.59,0,0,0-.4.15.57.57,0,0,0-.22.42.56.56,0,0,0,.14.45A.6.6,0,0,0,7.53,6.1Zm-1.67,0a.59.59,0,0,0-.14.46A.63.63,0,0,0,6,7a.62.62,0,0,0,.39.14.65.65,0,0,0,.49-.23A.64.64,0,0,0,7,6.41.61.61,0,0,0,6.73,6a.62.62,0,0,0-.39-.14A.63.63,0,0,0,5.86,6.08Zm-1,1.31a.64.64,0,0,0,.26.85.73.73,0,0,0,.29.07A.61.61,0,0,0,5.92,8,.59.59,0,0,0,6,7.5a.63.63,0,0,0-.31-.37.73.73,0,0,0-.29-.07A.63.63,0,0,0,4.82,7.39ZM4.48,9.66l.18,0a.63.63,0,0,0,.6-.44.64.64,0,0,0-.43-.78l-.17,0a.62.62,0,0,0-.55.92A.65.65,0,0,0,4.48,9.66Zm-.88.83a.64.64,0,0,0,.15.46.6.6,0,0,0,.42.22h.06a.62.62,0,0,0,.62-.56.64.64,0,0,0-.15-.46.57.57,0,0,0-.42-.22H4.22A.62.62,0,0,0,3.6,10.49Zm.49,2.23h.07A.61.61,0,0,0,4.71,12a.62.62,0,0,0-.62-.56H4a.61.61,0,0,0-.42.23.59.59,0,0,0-.14.46A.63.63,0,0,0,4.09,12.72Zm.17,1.54a.63.63,0,0,0,.19,0,.6.6,0,0,0,.36-.3A.62.62,0,0,0,4.26,13l-.18,0a.65.65,0,0,0-.37.3.63.63,0,0,0,.55.92Zm.47,1.48a.64.64,0,0,0,.3-.08.62.62,0,0,0,.25-.84.61.61,0,0,0-.55-.33.64.64,0,0,0-.3.08.62.62,0,0,0-.25.84A.63.63,0,0,0,4.73,15.74Zm1.37.79A.68.68,0,0,0,6,16.07a.64.64,0,0,0-.48-.22.63.63,0,0,0-.4.14.6.6,0,0,0-.22.42.59.59,0,0,0,.14.46.6.6,0,0,0,.87.08A.66.66,0,0,0,6.1,16.53Zm.77.64a.64.64,0,0,0-.88.1.67.67,0,0,0-.14.45.61.61,0,0,0,.23.42A.63.63,0,0,0,7,18.05.64.64,0,0,0,6.87,17.17Zm1.1.91A.55.55,0,0,0,7.68,18a.62.62,0,0,0-.55.34.63.63,0,0,0,0,.47.65.65,0,0,0,.3.37.59.59,0,0,0,.29.07.64.64,0,0,0,.56-.33.66.66,0,0,0,0-.48A.58.58,0,0,0,8,18.08Zm.91,1.86a.57.57,0,0,0,.18,0,.64.64,0,0,0,.6-.45.59.59,0,0,0-.05-.47.63.63,0,0,0-.37-.31l-.18,0a.62.62,0,0,0-.18,1.22Zm2.29-.11a.63.63,0,0,0-.56-.68h-.06a.63.63,0,0,0-.06,1.25h.06A.63.63,0,0,0,11.17,19.83Zm.92.7h.07a.63.63,0,0,0,.55-.69.62.62,0,0,0-.62-.55H12a.61.61,0,0,0-.42.23.67.67,0,0,0-.14.45A.63.63,0,0,0,12.09,20.53Zm2.14-1a.62.62,0,0,0-.59-.44.58.58,0,0,0-.19,0,.63.63,0,0,0-.37.31.64.64,0,0,0,0,.47.61.61,0,0,0,.59.44.58.58,0,0,0,.19,0A.62.62,0,0,0,14.23,19.55Zm.88-.9a.59.59,0,0,0-.29.07.62.62,0,0,0-.25.85.6.6,0,0,0,.54.32.6.6,0,0,0,.3-.07.63.63,0,0,0,.25-.85A.62.62,0,0,0,15.11,18.65Zm1.36-.75a.67.67,0,0,0-.4.14.69.69,0,0,0-.22.43.67.67,0,0,0,.14.45.65.65,0,0,0,.48.23.59.59,0,0,0,.4-.15.57.57,0,0,0,.22-.42.59.59,0,0,0-.14-.46A.62.62,0,0,0,16.47,17.9Zm1.67,0a.62.62,0,0,0-.48-1,.65.65,0,0,0-.49.23.63.63,0,0,0,.1.88.62.62,0,0,0,.39.14A.63.63,0,0,0,18.14,17.92Zm1-1.31a.64.64,0,0,0-.26-.85.73.73,0,0,0-.29-.07.61.61,0,0,0-.55.34.59.59,0,0,0,0,.47.63.63,0,0,0,.31.37.73.73,0,0,0,.29.07A.63.63,0,0,0,19.18,16.61Zm0-1.07.17,0a.62.62,0,0,0,.55-.92.65.65,0,0,0-.37-.3l-.18,0a.63.63,0,0,0-.6.44A.64.64,0,0,0,19.17,15.54Zm1.23-2a.63.63,0,0,0-.57-.68h-.06a.62.62,0,0,0-.62.56.64.64,0,0,0,.15.46.57.57,0,0,0,.42.22h.06A.62.62,0,0,0,20.4,13.51Zm-.49-2.23h-.07a.6.6,0,0,0-.42.22.64.64,0,0,0-.13.46.62.62,0,0,0,.62.56H20a.63.63,0,0,0,.56-.69A.63.63,0,0,0,19.91,11.28Zm-.36-1.51a.6.6,0,0,0-.36.3.62.62,0,0,0,.55.92l.18,0a.61.61,0,0,0,.41-.78.62.62,0,0,0-.59-.44A.63.63,0,0,0,19.55,9.77Zm-.28-1.51a.64.64,0,0,0-.3.08.65.65,0,0,0-.3.37.64.64,0,0,0,0,.47.61.61,0,0,0,.55.33.64.64,0,0,0,.3-.08.65.65,0,0,0,.3-.37.6.6,0,0,0-.05-.47A.63.63,0,0,0,19.27,8.26ZM17.9,7.47a.68.68,0,0,0,.14.46.64.64,0,0,0,.48.22.63.63,0,0,0,.4-.14.6.6,0,0,0,.22-.42A.59.59,0,0,0,19,7.13a.62.62,0,0,0-.48-.22.67.67,0,0,0-.4.14A.69.69,0,0,0,17.9,7.47Zm-.77-.64A.63.63,0,1,0,17,6a.63.63,0,0,0-.13.46A.6.6,0,0,0,17.13,6.83ZM16,5.92a.55.55,0,0,0,.29.08.62.62,0,0,0,.55-.34.63.63,0,0,0,0-.47.65.65,0,0,0-.3-.37.59.59,0,0,0-.29-.07.64.64,0,0,0-.56.33A.62.62,0,0,0,16,5.92Zm-.91-1.86-.18,0a.64.64,0,0,0-.6.45.59.59,0,0,0,.05.47.63.63,0,0,0,.37.31l.18,0a.62.62,0,0,0,.18-1.22Zm-2.29.11a.61.61,0,0,0,.14.45.66.66,0,0,0,.42.23h.06a.62.62,0,0,0,.62-.57.57.57,0,0,0-.14-.45.66.66,0,0,0-.42-.23h-.06A.63.63,0,0,0,12.83,4.17ZM14,1.73a.36.36,0,0,0,.41-.28.35.35,0,1,0-.41.28ZM13.1.53a.18.18,0,0,0,.21-.15.18.18,0,0,0-.14-.21A.18.18,0,0,0,13,.31.19.19,0,0,0,13.1.53Z"/></svg>