<?xml version="1.0" encoding="utf-8"?>
<!-- Generator: Adobe Illustrator 23.0.2, SVG Export Plug-In . SVG Version: 6.00 Build 0)  -->
<svg version="1.1" id="Layer_1" xmlns="http://www.w3.org/2000/svg" xmlns:xlink="http://www.w3.org/1999/xlink" x="0px" y="0px"
	 viewBox="0 0 96 96" style="enable-background:new 0 0 96 96;" xml:space="preserve">
<style type="text/css">
	.st0{fill:url(#SVGID_1_);}
	.st1{fill:#FFFFFF;}
</style>
<linearGradient id="SVGID_1_" gradientUnits="userSpaceOnUse" x1="48" y1="96" x2="48" y2="-9.094947e-13">
	<stop  offset="0" style="stop-color:#005173"/>
	<stop  offset="1" style="stop-color:#2ACCFF"/>
</linearGradient>
<circle class="st0" cx="48" cy="48" r="48"/>
<path class="st1" d="M68.1,57.1c1.4,0.1,1.8,0.6,1.5,1.9c-0.4,1.4-0.9,2.7-1.3,4.1c-0.1,0.3-0.4,0.6-0.1,0.8
	c0.3,0.2,0.6-0.1,0.8-0.3c1-0.9,1.6-2,2.1-3.2c0.5-1.3,0.9-2.5,0.8-3.9c0-0.6-0.2-0.8-0.7-1c-0.5-0.1-1-0.3-1.5-0.3
	c-2-0.2-4,0-5.8,1c-0.3,0.2-0.6,0.3-0.8,0.6c-0.1,0.1-0.3,0.5,0.2,0.6c0.2,0,0.4,0,0.6,0C65.5,57.2,66.5,57,68.1,57.1 M51.8,65.8
	c4.8-0.5,9.3-1.9,13.4-4.4c0.7-0.4,1.5-1,2.2-1.5c0.7-0.5,0.3-1.7-1.1-1.1c-5.1,2.2-10.4,3.4-16,3.6c-2.9,0.1-5.7,0-8.5-0.4
	c-5.9-0.9-11.5-2.7-16.6-5.7c-0.2-0.1-0.4-0.2-0.6-0.3c-0.5-0.1-0.7,0.4-0.2,0.9c2.2,2.1,4.7,3.8,7.4,5.2c5,2.6,10.4,4,16,3.9
	C49.1,65.9,50.4,65.9,51.8,65.8 M67,50.5c2-0.8,3.1-2.5,2.7-4.7c-0.2-1.4-1.1-2.3-2.4-2.8c-1.4-0.6-3.2-1-4.5-1.7
	c-0.4-0.2-0.7-0.6-0.7-1.1c0-1,0.4-1.6,1.4-1.9c0.9-0.2,1.8-0.2,2.6,0c0.7,0.1,1.3,0.4,2,0.6c0.3,0.1,0.6,0.2,0.7-0.2
	c0.4-0.7,0-1.8-0.7-2c-2.1-0.8-4.3-1.1-6.4-0.2c-1.4,0.6-2.3,1.6-2.4,3.2c-0.2,1.8,0.6,3.1,2.3,3.9c0.7,0.3,1.5,0.6,2.3,0.8
	c0.8,0.3,1.5,0.5,2.3,0.9c1.2,0.5,1.1,2.3,0.1,2.8c-2.6,1.4-6.1-0.2-6.5-0.4c-0.3-0.1-0.5,0-0.6,0.3c-0.3,1.1,0.1,1.8,1.1,2.1
	C62.4,51.1,65,51.3,67,50.5 M34.3,44.4c0.3,0,0.4,0.2,0.4,0.5c0,0.4,0,0.7,0,1.1c-0.1,1.1-0.7,1.8-1.7,2.3c-0.8,0.4-1.6,0.5-2.4,0.5
	c-1.4-0.1-2-1.2-1.8-2.5c0.1-1.2,0.8-1.8,2-2C32.1,44,32.3,44.2,34.3,44.4 M35.8,50.2c0.4,0.5,0.8,0.6,1.3,0.2l0.6-0.4
	c0.6-0.4,0.7-0.6,0.3-1.3c-0.4-0.8-0.6-1.6-0.6-2.5c0-0.3,0.1-5.2-0.1-6.3c-0.3-1.8-1.2-3.1-3-3.6c-1-0.3-2-0.3-3.1-0.3
	c-1.4,0-2.8,0.4-4,1.1c-0.2,0.1-0.3,0.3-0.4,0.5c-0.1,0.4-0.1,0.8-0.1,1.1c0.1,0.6,0.2,0.7,0.8,0.5c0.5-0.2,0.9-0.4,1.4-0.5
	c1.4-0.4,2.7-0.6,4.1-0.2c0.7,0.2,1.1,0.6,1.3,1.3c0.3,0.7,0.2,1.5,0.2,2.3c0,0.5,0,0.5-0.5,0.4c-1.3-0.2-2.6-0.5-3.9-0.3
	c-1.4,0.2-2.7,0.7-3.6,1.9c-0.9,1.1-0.9,2.4-0.7,3.7c0.3,1.4,1.1,2.4,2.5,2.8c1.9,0.6,3.8,0.3,5.4-0.9c0.4-0.3,0.7-0.6,1-0.9
	C35.2,49.3,35.5,49.8,35.8,50.2 M48.5,39.8c-1.3,5.4-1.2,5.1-2.4,10c-0.2,0.6-1,0.9-1,0.9h-1.3c0,0-0.8-0.2-0.9-0.8
	c-1.2-3.7-2.7-8.8-3.7-12.3c-0.4-1.3-0.1-1.2,0.9-1.2c0.3,0,0.7,0,1,0c0.5,0,0.7,0.2,0.9,0.7c0.3,1.2,0.6,2.1,2.5,9.8
	c0,0.2,0.1,0.4,0.1,0.4h0.1c0-0.2,0.1-0.4,0.2-0.6c0.7-3.1,1.5-6.2,2.2-9.3c0.2-1,0.6-1.1,1.6-1.1h0.7c0.6,0,0.8,0.1,1,0.8
	c0.6,2.2,2.2,9.6,2.5,10.4c0.5-1.7-0.2,0.7,2.7-10.2c0.2-0.8,0.4-0.9,1.2-0.9h1.2c0.5,0,0.7,0.2,0.5,0.7C58,38,58,38,54.4,49.6
	c-0.3,0.9-0.4,1-1.4,1h-1c0,0-0.9-0.1-1-0.8C50.6,48.3,48.8,40.8,48.5,39.8"/>
</svg>
