<svg id="Layer_1" data-name="Layer 1" xmlns="http://www.w3.org/2000/svg" xmlns:xlink="http://www.w3.org/1999/xlink" width="96" height="96" viewBox="0 0 96 96">
  <defs>
    <linearGradient id="linear-gradient" x1="48" y1="24" x2="48" y2="-72" gradientTransform="translate(0 72)" gradientUnits="userSpaceOnUse">
      <stop offset="0" stop-color="#005173"/>
      <stop offset="1" stop-color="#2accff"/>
    </linearGradient>
  </defs>
  <title>azure</title>
  <circle cx="48" cy="48" r="48" fill="url(#linear-gradient)"/>
  <g>
    <path d="M46.206,59.693c6.167-1.09,11.26-1.991,11.319-2l.106-.022-5.822-6.925c-3.2-3.809-5.822-6.941-5.822-6.959,0-.034,6.012-16.589,6.046-16.648.011-.02,4.1,7.044,9.917,17.122l9.974,17.289.076.132-18.5,0-18.5,0Z" fill="#fff"/>
    <path d="M24,57.581c0-.01,2.743-4.772,6.1-10.583l6.1-10.565,7.1-5.962c3.908-3.28,7.115-5.967,7.128-5.972a1.2,1.2,0,0,1-.114.288L42.6,41.334,35.02,57.585l-5.51.007C26.479,57.6,24,57.59,24,57.581Z" fill="#fff"/>
  </g>
</svg>
