<?xml version="1.0" encoding="utf-8"?>
<!-- Generator: Adobe Illustrator 23.0.2, SVG Export Plug-In . SVG Version: 6.00 Build 0)  -->
<svg version="1.1" id="Layer_1" xmlns="http://www.w3.org/2000/svg" xmlns:xlink="http://www.w3.org/1999/xlink" x="0px" y="0px"
	 viewBox="0 0 96 96" style="enable-background:new 0 0 96 96;" xml:space="preserve">
<style type="text/css">
	.st0{fill:url(#SVGID_1_);}
	.st1{fill:#FFFFFF;}
</style>
<linearGradient id="SVGID_1_" gradientUnits="userSpaceOnUse" x1="48" y1="96" x2="48" y2="-9.094947e-13">
	<stop  offset="0" style="stop-color:#005173"/>
	<stop  offset="1" style="stop-color:#2ACCFF"/>
</linearGradient>
<circle class="st0" cx="48" cy="48" r="48"/>
<path class="st1" d="M53,55H43l-2.7-14.2h15.1L53,55z M25.6,26.4c-0.9,0-1.6,0.7-1.6,1.5c0,0.1,0,0.2,0,0.3l6.5,39.6
	c0.2,1,1,1.7,2,1.7h31.3c0.8,0,1.4-0.5,1.5-1.3L72,28.2c0.1-0.8-0.4-1.6-1.3-1.8c-0.1,0-0.2,0-0.3,0L25.6,26.4z"/>
</svg>
