<svg id="Layer_1" data-name="Layer 1" xmlns="http://www.w3.org/2000/svg" xmlns:xlink="http://www.w3.org/1999/xlink" width="96" height="96" viewBox="0 0 96 96">
  <defs>
    <linearGradient id="linear-gradient" x1="48" y1="488" x2="48" y2="392" gradientTransform="translate(0 -392)" gradientUnits="userSpaceOnUse">
      <stop offset="0" stop-color="#005173"/>
      <stop offset="1" stop-color="#2accff"/>
    </linearGradient>
  </defs>
  <circle cx="48" cy="48" r="48" fill="url(#linear-gradient)"/>
  <path d="M54.827,54.194a9.426,9.426,0,0,0-.237-6.234,5.312,5.312,0,0,0-1.8-2.274A4.658,4.658,0,0,0,50.1,44.87a5.057,5.057,0,0,0-1.938.376A4.726,4.726,0,0,0,46.5,46.435a5.744,5.744,0,0,0-1.156,2.052,9.521,9.521,0,0,0-.432,2.985,8.958,8.958,0,0,0,.317,2.373,6.7,6.7,0,0,0,.967,2.063A4.775,4.775,0,0,0,47.8,57.366a4.666,4.666,0,0,0,2.255.546,4.72,4.72,0,0,0,1.993-.431A4.862,4.862,0,0,0,53.7,56.222,5.968,5.968,0,0,0,54.827,54.194Zm5.608-2.844a13.785,13.785,0,0,1-.708,4.51,10.233,10.233,0,0,1-1.979,3.452,8.633,8.633,0,0,1-3.007,2.209,9.3,9.3,0,0,1-3.79.778,8.289,8.289,0,0,1-2.29-.306,7.288,7.288,0,0,1-2.939-1.607,6.1,6.1,0,0,1-.932-1.039h-.081l.041.39c.023.334.037.669.04,1v1.067H39.923V38.021a.935.935,0,0,0-.229-.682.913.913,0,0,0-.661-.22h-1.62v-4.43h4.9a2.825,2.825,0,0,1,2.095.671,2.893,2.893,0,0,1,.66,2.118v6.071c-.006.52-.019.943-.04,1.265l-.041.5h.081a3.438,3.438,0,0,1,.224-.3,5.933,5.933,0,0,1,.7-.724,6.741,6.741,0,0,1,1.2-.861,7.782,7.782,0,0,1,1.75-.726,9.3,9.3,0,0,1,6.113.5,8.223,8.223,0,0,1,2.891,2.242h0a10.286,10.286,0,0,1,1.837,3.466,14.724,14.724,0,0,1,.642,4.442M72,48,60,26.549H36L24,48,36,69.451H60Z" fill="#fff"/>
</svg>
