<?xml version="1.0" encoding="utf-8"?>
<!-- Generator: Adobe Illustrator 23.0.2, SVG Export Plug-In . SVG Version: 6.00 Build 0)  -->
<svg version="1.1" id="Layer_1" xmlns="http://www.w3.org/2000/svg" xmlns:xlink="http://www.w3.org/1999/xlink" x="0px" y="0px"
	 viewBox="0 0 96 96" style="enable-background:new 0 0 96 96;" xml:space="preserve">
<style type="text/css">
	.st0{fill:url(#SVGID_1_);}
	.st1{fill:#FFFFFF;}
</style>
<linearGradient id="SVGID_1_" gradientUnits="userSpaceOnUse" x1="48" y1="96" x2="48" y2="-9.094947e-13">
	<stop  offset="0" style="stop-color:#005173"/>
	<stop  offset="1" style="stop-color:#2ACCFF"/>
</linearGradient>
<circle class="st0" cx="48" cy="48" r="48"/>
<path class="st1" d="M55.6,52.8V60l6.2-3.6L55.6,52.8z M50.5,58.3l-1.2-0.7v6l5.2-3L50.5,58.3z M50.5,41.5l-1.1-0.7v6l5.2-3
	L50.5,41.5z M49.3,49.2v6l5.2-3L49.3,49.2z M49.3,24v6l5.2-3L49.3,24z M49.3,32.4v6l5.2-3L49.3,32.4z M62.9,48.6v7.1l6.2-3.6
	L62.9,48.6z M62.9,40.2v7.1l6.2-3.6L62.9,40.2z M62.9,31.8V39l6.2-3.6L62.9,31.8z M55.6,27.6v7.1l6.2-3.6L55.6,27.6z M55.6,44.4v7.1
	l6.2-3.6L55.6,44.4z M55.6,36v7.1l6.2-3.6L55.6,36z M69.4,43.2V36l-6.2,3.6L69.4,43.2z M49.3,66v6l5.2-3L49.3,66z M62.2,55.8v-7.2
	L56,52.2L62.2,55.8z M59.8,37.6l2.4,1.4v-7.2L56,35.4L59.8,37.6z M62.9,57v7.1l6.2-3.6L62.9,57z M62.2,64.2V57L56,60.6L62.2,64.2z
	 M69.5,60v-7.2l-6.2,3.6L69.5,60z M62.2,47.4v-7.1L56,43.8L62.2,47.4z M54.9,52.8L49.3,56v0.7l5.6,3.2V52.8z M54.9,44.4l-5.6,3.2
	v0.7l5.6,3.2V44.4z M55.6,61.2v7.1l6.2-3.6L55.6,61.2z M54.9,61.2l-5.6,3.2v0.7l5.6,3.2L54.9,61.2z M54.9,34.8v-7.1l-5.6,3.2v0.7
	l2.4,1.4L54.9,34.8z M54.9,36l-5.6,3.2V40l5.6,3.2V36z M33.8,40.2v7.1l6.2-3.6L33.8,40.2z M31.7,39l-3.6-2L26.5,36v7.1l6.2-3.6
	L31.7,39z M33.8,31.8V39l6.2-3.6L33.8,31.8z M26.5,44.4v7.1l6.2-3.6L26.5,44.4z M26.5,52.8V60l6.2-3.6L26.5,52.8z M36.8,50.4l-3-1.7
	v7.1l6.2-3.6L36.8,50.4z M46.7,63.6v-6l-5.2,3L46.7,63.6z M46.7,30v-6l-5.2,3L46.7,30z M44.4,37.1l2.3,1.3v-6l-5.2,3L44.4,37.1z
	 M41.1,60l5.6-3.2V56l-5.6-3.2V60z M41.1,36v7.1l5.6-3.2v-0.7l-3.4-2L41.1,36z M41.1,34.8l5.6-3.2v-0.7l-5.6-3.2V34.8z M33.1,64.2
	V57l-6.2,3.6L33.1,64.2z M40.4,51.6v-7.1L34.2,48L40.4,51.6z M40.4,34.8v-7.1l-6.2,3.6L40.4,34.8z M40.4,43.2V36l-6.2,3.6L40.4,43.2
	z M33.1,55.8v-7.1l-6.2,3.6L33.1,55.8z M46.7,72v-6l-5.2,3L46.7,72z M41.1,68.4l5.6-3.2v-0.7l-5.6-3.2V68.4z M33.1,47.4v-7.1
	l-6.2,3.6L33.1,47.4z M33.1,39v-7.1l-6.2,3.6L33.1,39z M40.4,60v-7.1l-6.2,3.6L40.4,60z M36.8,58.8l-3-1.7v7.1l6.2-3.6L36.8,58.8z
	 M40.4,68.4v-7.1l-6.2,3.6L40.4,68.4z"/>
</svg>
