<svg id="Layer_1" data-name="Layer 1" xmlns="http://www.w3.org/2000/svg" xmlns:xlink="http://www.w3.org/1999/xlink" width="96" height="96" viewBox="0 0 96 96">
  <defs>
    <linearGradient id="linear-gradient" x1="48" y1="-653.488" x2="48" y2="-557.488" gradientTransform="matrix(1, 0, 0, -1, 0, -557.488)" gradientUnits="userSpaceOnUse">
      <stop offset="0" stop-color="#005173"/>
      <stop offset="1" stop-color="#2accff"/>
    </linearGradient>
  </defs>
  <circle cx="48" cy="48" r="48" fill="url(#linear-gradient)"/>
  <g>
    <g>
      <path d="M55.862,44.765a3.531,3.531,0,0,0-1.6-.386,1.932,1.932,0,1,0,0,3.852,3.489,3.489,0,0,0,1.6-.382v1.94a6.438,6.438,0,0,1-1.744.256,3.75,3.75,0,1,1,0-7.476,6.1,6.1,0,0,1,1.744.26Z" fill="#fff"/>
      <path d="M35.9,44.765a3.478,3.478,0,0,0-1.6-.386,1.934,1.934,0,1,0-.351,3.852,1.871,1.871,0,0,0,.351,0,3.464,3.464,0,0,0,1.6-.382v1.94a6.369,6.369,0,0,1-1.746.256,3.748,3.748,0,1,1-.547-7.476,3.841,3.841,0,0,1,.547,0,6.038,6.038,0,0,1,1.746.26Z" fill="#fff"/>
      <path d="M61.876,44.407a1.915,1.915,0,1,0,.053,0h-.053m4,1.9a3.8,3.8,0,0,1-3.854,3.745c-.049,0-.1,0-.146,0a3.746,3.746,0,1,1-.489-7.476,3.989,3.989,0,0,1,.489,0,3.8,3.8,0,0,1,3.995,3.594c0,.048,0,.1.005.142" fill="#fff"/>
      <path d="M47.692,44.337a6.927,6.927,0,0,0-1.494-.218c-.766,0-1.184.242-1.184.6,0,.438.562.59.874.688l.532.156a2.2,2.2,0,0,1,1.8,2.068c0,1.812-1.676,2.422-3.138,2.422a12.429,12.429,0,0,1-2.064-.2V48.2a7.5,7.5,0,0,0,1.8.268c.948,0,1.4-.264,1.4-.676,0-.366-.378-.574-.856-.718l-.41-.124c-1.064-.322-1.95-.918-1.95-2.11,0-1.354,1.06-2.258,2.826-2.258a8.523,8.523,0,0,1,1.862.228Z" fill="#fff"/>
      <path d="M28.088,34.941a.949.949,0,0,0-1.9,0v1.894a.949.949,0,0,0,1.9,0v-1.9Z" fill="#fff"/>
      <path d="M33.3,32.453a.95.95,0,0,0-1.9,0v4.38a.95.95,0,0,0,1.9,0Z" fill="#fff"/>
      <path d="M38.518,29.051a.95.95,0,0,0-1.9,0v9.584a.95.95,0,0,0,1.9,0Z" fill="#fff"/>
      <path d="M43.734,32.453a.948.948,0,0,0-1.894,0v4.38a.948.948,0,0,0,1.894,0Z" fill="#fff"/>
      <path d="M48.946,34.941a.948.948,0,0,0-1.894,0v1.894a.948.948,0,0,0,1.894,0Z" fill="#fff"/>
      <path d="M54.164,32.453a.948.948,0,0,0-1.892,0v4.38a.946.946,0,1,0,1.892,0h0Z" fill="#fff"/>
      <path d="M59.382,29.051a.948.948,0,0,0-1.894,0v9.584a.948.948,0,0,0,1.894,0Z" fill="#fff"/>
      <path d="M64.6,32.453a.956.956,0,0,0-1.91,0v4.38a.956.956,0,0,0,1.91,0Z" fill="#fff"/>
      <path d="M69.8,34.941a.948.948,0,0,0-1.894,0v1.894a.948.948,0,0,0,1.894,0Z" fill="#fff"/>
      <path d="M40.442,49.917H38.526V42.7h1.916Z" fill="#fff"/>
    </g>
    <g>
      <path d="M29.46,63.6,24.948,53V63.6H24V51.8h1.43L30,62.617,34.3,51.8h1.378V63.6h-.93V53.071L30.492,63.6Z" fill="#fff"/>
      <path d="M45.638,61.271a3.6,3.6,0,0,1-3.72,2.574,4.1,4.1,0,0,1-4.271-3.917,4.048,4.048,0,0,1,.017-.593A4.037,4.037,0,0,1,41.2,54.854a4.143,4.143,0,0,1,.546-.027c2.292,0,4.048,1.474,4.048,4.724H38.612a3.239,3.239,0,0,0,3.324,3.542,2.665,2.665,0,0,0,2.72-1.822Zm-7-2.46h6.2a3.037,3.037,0,0,0-2.8-3.256c-.094-.007-.189-.009-.283-.008a3.14,3.14,0,0,0-3.118,3.162c0,.034,0,.068,0,.1" fill="#fff"/>
      <path d="M47.966,63.6V55.071h.758l.138,1.642a2.578,2.578,0,0,1,2.514-1.886,3.287,3.287,0,0,1,.93.132v.868a3.651,3.651,0,0,0-.98-.148c-1.31,0-2.43,1.214-2.43,3.264V63.6Z" fill="#fff"/>
      <path d="M53.48,57.285c.138-1.458,1.5-2.458,3.48-2.458s3.322,1.064,3.322,2.8V63.6h-.756l-.138-1.4a3.56,3.56,0,0,1-3.168,1.654c-1.74,0-3-.9-3-2.4,0-1.46.93-2.346,3.444-2.74l2.688-.426v-.738c0-1.232-.914-1.986-2.446-1.986-1.43,0-2.344.7-2.464,1.738Zm5.874,3.282v-1.6l-2.412.4c-2.136.344-2.756.984-2.756,2,0,1.148.93,1.722,2.274,1.722a2.769,2.769,0,0,0,2.894-2.526" fill="#fff"/>
      <path d="M62.666,63.6V51.8H63.6v6.756l4.29-3.476h1.256l-4.6,3.726,5.166,4.8H68.456L63.6,59.091V63.6Z" fill="#fff"/>
      <rect x="70.88" y="51.791" width="1.12" height="1.212" fill="#fff"/>
      <rect x="70.964" y="55.071" width="0.93" height="8.53" fill="#fff"/>
    </g>
  </g>
</svg>
