<svg id="Layer_1" data-name="Layer 1" xmlns="http://www.w3.org/2000/svg" xmlns:xlink="http://www.w3.org/1999/xlink" width="96" height="96" viewBox="0 0 96 96">
  <defs>
    <linearGradient id="linear-gradient" x1="48" y1="488" x2="48" y2="392" gradientTransform="translate(0 -392)" gradientUnits="userSpaceOnUse">
      <stop offset="0" stop-color="#005173"/>
      <stop offset="1" stop-color="#2accff"/>
    </linearGradient>
  </defs>
  <circle cx="48" cy="48" r="48" fill="url(#linear-gradient)"/>
  <g>
    <path d="M57.062,53.461a2.844,2.844,0,0,0-.3-2.59,3.083,3.083,0,0,0-2.091-1.095l-17.328-.2c-.1,0-.2-.1-.3-.1a.187.187,0,0,1,0-.3c.1-.2.2-.3.4-.3l17.427-.2A6.262,6.262,0,0,0,59.95,44.9l1-2.589c0-.1.1-.2,0-.3a11.349,11.349,0,0,0-21.809-1.2,5.441,5.441,0,0,0-3.585-1A5.189,5.189,0,0,0,30.971,44.4a5.42,5.42,0,0,0,.1,1.793A7.271,7.271,0,0,0,24,53.461a4.065,4.065,0,0,0,.1,1.095.318.318,0,0,0,.3.3H56.365c.2,0,.4-.1.4-.3Z" fill="#fff"/>
    <path d="M62.539,42.307h-.5c-.1,0-.2.1-.3.2l-.7,2.39a2.842,2.842,0,0,0,.3,2.589,3.082,3.082,0,0,0,2.092,1.1l3.684.2c.1,0,.2.1.3.1a.186.186,0,0,1,0,.3c-.1.2-.2.3-.4.3l-3.784.2a6.266,6.266,0,0,0-5.079,3.785l-.2.9c-.1.1,0,.3.2.3H71.3a.265.265,0,0,0,.3-.3,10.838,10.838,0,0,0,.4-2.589,9.521,9.521,0,0,0-9.461-9.461" fill="#fff"/>
  </g>
</svg>
