<svg id="Layer_1" data-name="Layer 1" xmlns="http://www.w3.org/2000/svg" xmlns:xlink="http://www.w3.org/1999/xlink" width="96" height="96" viewBox="0 0 96 96">
  <defs>
    <linearGradient id="linear-gradient" x1="48.5" y1="74" x2="48.5" y2="170" gradientTransform="matrix(1, 0, 0, -1, 0, 170)" gradientUnits="userSpaceOnUse">
      <stop offset="0" stop-color="#005173"/>
      <stop offset="1" stop-color="#2accff"/>
    </linearGradient>
  </defs>
  <title>crowd-strike</title>
  <circle cx="48.5" cy="48" r="48" fill="url(#linear-gradient)"/>
  <g>
    <path d="M69.632,59.418a8.488,8.488,0,0,0-5.164.8,6.729,6.729,0,0,1-4.322,1.088c.332.6,1,1.436,3.11,1.584s3.118.214,2,2.842c.026-.8-.16-2.328-2.254-2.06s-2.582,2.154-.336,3.1c-.73.146-2.278.234-3.384-2.658a3.362,3.362,0,0,1-4.086-.654,6.1,6.1,0,0,0,1.668.288A13.935,13.935,0,0,1,52,59.552a6.815,6.815,0,0,0,2.968,1.5,76.033,76.033,0,0,0-7.468-7.5c2.212,1.444,4.882,3.726,9.248,3.214s7.3-1.514,12.89,2.648" fill="#fff"/>
    <path d="M50.936,58.388a33.1,33.1,0,0,0-6.846-2.32,17.31,17.31,0,0,1-9.3-5.668c1.634,1.2,4.966,3.6,8.4,3.342A7.132,7.132,0,0,0,40.552,51.8c1.3.31,5.214,1.312,10.384,6.6" fill="#fff"/>
    <path d="M44.974,48.25c-.706-2.026-1.98-4.618-8.024-8.472A57.008,57.008,0,0,1,24,29.178c.4,1.676,2.2,6.034,11.26,11.694,2.976,2.03,6.816,3.282,9.714,7.378" fill="#fff"/>
    <path d="M45.348,51.188c-.744-1.716-2.238-3.916-8.092-7.056A43.2,43.2,0,0,1,25.8,35.872c.376,1.6,2.3,5.1,10.584,9.484,2.294,1.264,6.172,2.448,8.964,5.832" fill="#fff"/>
    <path d="M67.492,55.71c2.162.328,2.054.786,2.076,1.578a7.973,7.973,0,0,0-2.076-1.578M51.024,42.324c-11.41-3.264-15.946-7.384-19.456-11.7C33.17,35.6,37,37.368,41.076,40.7A18.015,18.015,0,0,1,46.6,47.8c2.68,4.388,3.106,5.112,5.766,7.028,3.134,2.08,6.926.672,11.084,1.324a13.956,13.956,0,0,1,8.35,5.036c.872-1.556-1.212-3.8-1.774-4.36.3-2.036-4.516-2.932-6.34-3.628-.36-.138-1.246-.342-.476-2.17,1.036-2.524,2.116-4.72-12.176-8.706" fill="#fff"/>
  </g>
</svg>
