<svg id="Layer_1" data-name="Layer 1" xmlns="http://www.w3.org/2000/svg" xmlns:xlink="http://www.w3.org/1999/xlink" width="96" height="96" viewBox="0 0 96 96">
  <defs>
    <linearGradient id="linear-gradient" x1="48" y1="488" x2="48" y2="392" gradientTransform="translate(0 -392)" gradientUnits="userSpaceOnUse">
      <stop offset="0" stop-color="#005173"/>
      <stop offset="1" stop-color="#2accff"/>
    </linearGradient>
  </defs>
  <circle cx="48" cy="48" r="48" fill="url(#linear-gradient)"/>
  <g>
    <path d="M65.778,45.779c.02-.248.033-.5.033-.754a9.21,9.21,0,0,0-6.62-8.749l-.169-3.311L59.96,28.3,53.749,28.3v4.13H50.841V28.3H45.205v4.13H42.293V28.3l-6.206.005.937,4.662-.3,5.793A5.862,5.862,0,0,0,31.566,44.5a5.664,5.664,0,0,0,.489,2.3,8.2,8.2,0,1,0,.394,16.4H62.778A9.092,9.092,0,0,0,72,54.249,8.958,8.958,0,0,0,65.778,45.779ZM57.027,52.04a5.289,5.289,0,0,0-3.983.907,5.187,5.187,0,0,0-7.252-.391,4.926,4.926,0,0,0-4.27-1.215,5.245,5.245,0,0,0-4.356-1.524l.86-16.864,0-.062L37.308,29.3l3.985,0v4.129h4.912V29.3h3.636v4.13h4.908V29.3l3.99,0-.722,3.589.836,16.378A5.275,5.275,0,0,0,57.027,52.04Z" fill="#fff"/>
    <path d="M40.479,39.339a7.524,7.524,0,0,0,15.042,0v-.151H40.479ZM48,39.658a2.954,2.954,0,1,1-3.041,2.953A3,3,0,0,1,48,39.658Z" fill="#fff"/>
  </g>
</svg>
