<svg id="Layer_1" data-name="Layer 1" xmlns="http://www.w3.org/2000/svg" xmlns:xlink="http://www.w3.org/1999/xlink" width="96" height="96" viewBox="0 0 96 96">
  <defs>
    <linearGradient id="linear-gradient" x1="48" y1="-428" x2="48" y2="-332" gradientTransform="matrix(1, 0, 0, -1, 0, -332)" gradientUnits="userSpaceOnUse">
      <stop offset="0" stop-color="#005173"/>
      <stop offset="1" stop-color="#2accff"/>
    </linearGradient>
  </defs>
  <circle cx="48" cy="48" r="48" fill="url(#linear-gradient)"/>
  <path id="path3436" d="M71.545,51.383c-.755-8.774-6.807-14.674-11.5-21.027C62.016,27.482,66.4,28.39,69.579,29A28.7,28.7,0,0,0,55.511,24c-9.831-.148-17.7,5.6-24.957,11.953C26.167,34.6,29.2,29.9,29.2,26.577a26.255,26.255,0,0,0-4.841,16.788A30.153,30.153,0,0,0,29.8,58.493l6.353,7.261c-2.118,3.477-6.353,1.967-9.531,1.361a26.276,26.276,0,0,0,16.788,4.84,29.143,29.143,0,0,0,14.969-5.446l7.261-6.353A9.773,9.773,0,0,1,67,69.687,27.953,27.953,0,0,0,71.545,51.383Zm-6.958.3c-1.815,2.269-4.083,5-4.083,5a32.154,32.154,0,0,1-5.143,4.536A19.16,19.16,0,0,1,44.769,65h-.9l-.152-.15-4.235-4.237a56.092,56.092,0,0,1-4.387-5,19.563,19.563,0,0,1-3.781-10.593V43.67l4.235-3.783c4.99-4.385,10.44-8.318,17.235-8.318h.3l3.336,4.387c3.177,4.4,7.412,8.622,8.018,14.671,0,0,.15.908.15,1.059Z" fill="#fff"/>
</svg>
