<?xml version="1.0" encoding="utf-8"?>
<!-- Generator: Adobe Illustrator 23.0.2, SVG Export Plug-In . SVG Version: 6.00 Build 0)  -->
<svg version="1.1" id="Layer_1" xmlns="http://www.w3.org/2000/svg" xmlns:xlink="http://www.w3.org/1999/xlink" x="0px" y="0px"
	 viewBox="0 0 96 96" style="enable-background:new 0 0 96 96;" xml:space="preserve">
<style type="text/css">
	.st0{fill:url(#SVGID_1_);}
	.st1{fill:#FFFFFF;}
</style>
<linearGradient id="SVGID_1_" gradientUnits="userSpaceOnUse" x1="48" y1="96" x2="48" y2="-9.094947e-13">
	<stop  offset="0" style="stop-color:#005173"/>
	<stop  offset="1" style="stop-color:#2ACCFF"/>
</linearGradient>
<circle class="st0" cx="48" cy="48" r="48"/>
<path class="st1" d="M40.1,61.7c0,0.2-0.2,0.3-0.5,0.3c-0.3,0-0.5-0.1-0.5-0.3c0-0.2,0.2-0.3,0.5-0.3C39.8,61.3,40.1,61.5,40.1,61.7
	z M37,61.2c-0.1,0.2,0.1,0.4,0.4,0.5c0.3,0.1,0.5,0,0.6-0.2s-0.1-0.4-0.4-0.5C37.4,60.9,37.1,61,37,61.2z M41.3,61.1
	c-0.3,0.1-0.5,0.3-0.4,0.5c0,0.2,0.3,0.3,0.6,0.3c0.3-0.1,0.5-0.3,0.4-0.4C41.9,61.2,41.6,61,41.3,61.1z M47.7,24
	C34.3,24,24,34.2,24,47.6c0,10.7,6.8,19.9,16.4,23.1c1.2,0.2,1.7-0.5,1.7-1.2c0-0.6,0-3.9,0-5.9c0,0-6.8,1.5-8.2-2.9
	c0,0-1.1-2.8-2.7-3.5c0,0-2.2-1.5,0.2-1.5c0,0,2.4,0.2,3.7,2.5c2.1,3.7,5.7,2.7,7.1,2c0.2-1.5,0.9-2.6,1.5-3.3
	c-5.4-0.6-10.9-1.4-10.9-10.7c0-2.7,0.7-4,2.3-5.7C34.8,40,34,37.4,35.3,34c2-0.6,6.7,2.6,6.7,2.6c1.9-0.5,4-0.8,6.1-0.8
	c2.1,0,4.1,0.3,6.1,0.8c0,0,4.7-3.3,6.7-2.6c1.3,3.4,0.5,5.9,0.3,6.6c1.5,1.7,2.5,3,2.5,5.7c0,9.3-5.7,10.1-11.1,10.7
	c0.9,0.8,1.6,2.2,1.6,4.5c0,3.3,0,7.3,0,8.1c0,0.6,0.4,1.4,1.7,1.2C65.4,67.5,72,58.3,72,47.6C72,34.2,61.1,24,47.7,24z M33.4,57.4
	c-0.1,0.1-0.1,0.3,0.1,0.5c0.2,0.2,0.4,0.2,0.5,0.1c0.1-0.1,0.1-0.3-0.1-0.5C33.8,57.3,33.5,57.2,33.4,57.4z M32.4,56.6
	c-0.1,0.1,0,0.3,0.2,0.4c0.2,0.1,0.3,0.1,0.4-0.1c0.1-0.1,0-0.3-0.2-0.4C32.6,56.5,32.4,56.5,32.4,56.6z M35.5,60
	c-0.2,0.1-0.1,0.4,0.1,0.6c0.2,0.2,0.5,0.3,0.6,0.1c0.1-0.1,0.1-0.4-0.1-0.6C35.9,59.9,35.6,59.9,35.5,60z M34.4,58.6
	c-0.2,0.1-0.2,0.3,0,0.6c0.2,0.2,0.4,0.3,0.5,0.2c0.2-0.1,0.2-0.4,0-0.6C34.8,58.6,34.5,58.5,34.4,58.6z"/>
</svg>
