<svg id="Layer_1" data-name="Layer 1" xmlns="http://www.w3.org/2000/svg" xmlns:xlink="http://www.w3.org/1999/xlink" width="96" height="96" viewBox="0 0 96 96">
  <defs>
    <linearGradient id="linear-gradient" x1="48" y1="488" x2="48" y2="392" gradientTransform="translate(0 -392)" gradientUnits="userSpaceOnUse">
      <stop offset="0" stop-color="#005173"/>
      <stop offset="1" stop-color="#2accff"/>
    </linearGradient>
  </defs>
  <circle cx="48" cy="48" r="48" fill="url(#linear-gradient)"/>
  <path d="M66.038,41.527a18.776,18.776,0,0,0-5.664-9.134h0a18.784,18.784,0,0,0-30.585,9.134h0A13.132,13.132,0,0,0,24,52.821a13.55,13.55,0,0,0,5.293,10.664l.015-.014-.015.057a13.456,13.456,0,0,0,8.183,2.723l10.367.067h10.5a13.559,13.559,0,0,0,7.7-24.79Zm-7.7,16.443L47.9,57.907H37.476a5.181,5.181,0,0,1-2.14-.465l0,0a5.212,5.212,0,1,1,6.895-6.895L48.278,44.5a13.525,13.525,0,0,0-8.157-5.065c.044-.026-.036-.007,0,0A10.715,10.715,0,0,1,54.606,38.32h0a10.411,10.411,0,0,1,3.733,8.186v1.04a5.212,5.212,0,1,1,0,10.424Z" fill="#fff"/>
</svg>
