<?xml version="1.0" encoding="utf-8"?>
<!-- Generator: Adobe Illustrator 23.0.2, SVG Export Plug-In . SVG Version: 6.00 Build 0)  -->
<svg version="1.1" id="Layer_1" xmlns="http://www.w3.org/2000/svg" xmlns:xlink="http://www.w3.org/1999/xlink" x="0px" y="0px"
	 viewBox="0 0 96 96" style="enable-background:new 0 0 96 96;" xml:space="preserve">
<style type="text/css">
	.st0{fill:url(#SVGID_1_);}
	.st1{fill:#FFFFFF;}
</style>
<linearGradient id="SVGID_1_" gradientUnits="userSpaceOnUse" x1="48" y1="96" x2="48" y2="-9.094947e-13">
	<stop  offset="0" style="stop-color:#005173"/>
	<stop  offset="1" style="stop-color:#2ACCFF"/>
</linearGradient>
<circle class="st0" cx="48" cy="48" r="48"/>
<path class="st1" d="M70.9,43.6H48.5v9.3h12.9c-1.2,5.9-6.2,9.3-12.9,9.3c-7.8-0.3-14-6.9-13.7-14.7c0.3-7.4,6.2-13.4,13.7-13.7
	c3.2,0,6.4,1.1,8.8,3.2l7-7c-10-8.8-25.1-7.8-33.9,2.2S22.7,57.3,32.7,66c4.4,3.9,10,6,15.9,6c12,0,22.9-8.7,22.9-24
	C71.4,46.5,71.3,45,70.9,43.6z"/>
</svg>
