<svg id="Layer_1" data-name="Layer 1" xmlns="http://www.w3.org/2000/svg" xmlns:xlink="http://www.w3.org/1999/xlink" width="96" height="96" viewBox="0 0 96 96">
  <defs>
    <linearGradient id="linear-gradient" x1="48" x2="48" y2="96" gradientTransform="matrix(1, 0, 0, -1, 0, 96)" gradientUnits="userSpaceOnUse">
      <stop offset="0" stop-color="#005173"/>
      <stop offset="1" stop-color="#2accff"/>
    </linearGradient>
  </defs>
  <title>hacker-one</title>
  <circle cx="48" cy="48" r="48" fill="url(#linear-gradient)"/>
  <path d="M40.759,24.6a4.289,4.289,0,0,0-2.312-.6,4.231,4.231,0,0,0-2.382.6,1.861,1.861,0,0,0-.924,1.588V69.754a2.044,2.044,0,0,0,.924,1.52A3.861,3.861,0,0,0,38.379,72a4.007,4.007,0,0,0,2.314-.728,1.951,1.951,0,0,0,1-1.52V26.176a1.617,1.617,0,0,0-.934-1.586m5.488,22.874a1.826,1.826,0,0,0-.462,1.72,3.414,3.414,0,0,0,1.05,2.174,4.245,4.245,0,0,0,2.114,1.322,1.954,1.954,0,0,0,1.786-.264l3.5-2.176v19.5a2.043,2.043,0,0,0,.926,1.522A3.671,3.671,0,0,0,57.477,72a4.086,4.086,0,0,0,2.382-.728,1.948,1.948,0,0,0,1-1.522V43.44a1.7,1.7,0,0,0-1-1.522,4.628,4.628,0,0,0-2.448-.6,3.992,3.992,0,0,0-2.312.6l-8.86,5.554" fill="#fff"/>
</svg>
