<svg id="Layer_1" data-name="Layer 1" xmlns="http://www.w3.org/2000/svg" xmlns:xlink="http://www.w3.org/1999/xlink" width="96" height="96" viewBox="0 0 96 96">
  <defs>
    <linearGradient id="linear-gradient" x1="48" y1="-653.488" x2="48" y2="-557.488" gradientTransform="matrix(1, 0, 0, -1, 0, -557.488)" gradientUnits="userSpaceOnUse">
      <stop offset="0" stop-color="#005173"/>
      <stop offset="1" stop-color="#2accff"/>
    </linearGradient>
  </defs>
  <circle cx="48" cy="48" r="48" fill="url(#linear-gradient)"/>
  <path d="M65.28,24H30.72a4.32,4.32,0,0,0-4.32,4.32V67.68A4.32,4.32,0,0,0,30.72,72H65.28a4.32,4.32,0,0,0,4.32-4.32V28.32A4.32,4.32,0,0,0,65.28,24ZM37.2,64.8V55.2L42.6,60Zm16.8,0V50.466C53.976,49.346,53.438,48,51,48a30.038,30.038,0,0,0-10.4,2.48l-3.4,1.536V31.2H42V44.826A30.39,30.39,0,0,1,51,43.2a7.71,7.71,0,0,1,5.71,2.146A7.486,7.486,0,0,1,58.8,50.4V64.8ZM55.2,39H50.4A18.681,18.681,0,0,0,54,31.2h4.8A14.064,14.064,0,0,1,55.2,39Z" fill="#fff"/>
</svg>
