<svg id="Layer_1" data-name="Layer 1" xmlns="http://www.w3.org/2000/svg" xmlns:xlink="http://www.w3.org/1999/xlink" width="96" height="96" viewBox="0 0 96 96">
  <defs>
    <linearGradient id="linear-gradient" x1="48" x2="48" y2="96" gradientTransform="matrix(1, 0, 0, -1, 0, 96)" gradientUnits="userSpaceOnUse">
      <stop offset="0" stop-color="#005173"/>
      <stop offset="1" stop-color="#2accff"/>
    </linearGradient>
  </defs>
  <title>jira</title>
  <circle cx="48" cy="48" r="48" fill="url(#linear-gradient)"/>
  <g>
    <path d="M66.162,29H44.974a9.61,9.61,0,0,0,9.564,9.566h3.9v3.766A9.6,9.6,0,0,0,68,51.892V30.838A1.847,1.847,0,0,0,66.162,29Z" fill="#fff"/>
    <path d="M55.678,39.558H34.49a9.609,9.609,0,0,0,9.558,9.558h3.9V52.9a9.6,9.6,0,0,0,9.564,9.552V41.4a1.847,1.847,0,0,0-1.838-1.838Z" fill="#fff"/>
    <path d="M45.188,50.108H24a9.61,9.61,0,0,0,9.564,9.566H37.48v3.768A9.6,9.6,0,0,0,47.026,73V51.946A1.847,1.847,0,0,0,45.188,50.108Z" fill="#fff"/>
  </g>
</svg>
