<svg id="Layer_1" data-name="Layer 1" xmlns="http://www.w3.org/2000/svg" xmlns:xlink="http://www.w3.org/1999/xlink" width="96" height="96" viewBox="0 0 96 96">
  <defs>
    <linearGradient id="linear-gradient" x1="48" y1="74" x2="48" y2="170" gradientTransform="matrix(1, 0, 0, -1, 0, 170)" gradientUnits="userSpaceOnUse">
      <stop offset="0" stop-color="#005173"/>
      <stop offset="1" stop-color="#2accff"/>
    </linearGradient>
  </defs>
  <title>jump-cloud</title>
  <circle cx="48" cy="48" r="48" fill="url(#linear-gradient)"/>
  <g>
    <path d="M65.4,55.708c-.162,0-.284.04-.446.04H46.236a10.989,10.989,0,0,1,6.13-5.236,5.9,5.9,0,0,1-2.436-5.8,5.982,5.982,0,1,1,9.37,5.8,10.7,10.7,0,0,1,6.092,5.2c-.162,0-1.1-2.07,0,0Zm-20.582,0a4.165,4.165,0,0,1,1.056-2.11,9.7,9.7,0,0,0-3.532-2.234,4.954,4.954,0,0,0-1.1-8.6,5.044,5.044,0,0,0-6,1.988,4.936,4.936,0,0,0,1.34,6.618,9.071,9.071,0,0,0-5.076,4.342H44.818Z" fill="#fff"/>
    <path d="M68.158,48.034a4.521,4.521,0,0,1-1.42,7.308,8.175,8.175,0,0,0-2.154-3.086,11.53,11.53,0,0,0-2.882-2.2,7.872,7.872,0,0,0,1.34-2.882,4.447,4.447,0,0,1,5.114.852h0ZM28.13,54.4a5.229,5.229,0,0,0,2.028,1.136,5.429,5.429,0,0,1,1.666-2.6,10.479,10.479,0,0,1,2.436-1.988,6.3,6.3,0,0,1-.976-4.872,5.074,5.074,0,0,0-5.968,1.988,4.913,4.913,0,0,0,.812,6.336c.326.324-.04-.04,0,0Zm17.7-7.064a6.226,6.226,0,0,1-1.136,3.572,11.372,11.372,0,0,1,2.07,1.584,12.338,12.338,0,0,1,3.126-2.478A7.359,7.359,0,0,1,53.138,38.77,6.721,6.721,0,0,0,46.074,36.5a6.631,6.631,0,0,0-4.628,4.838A6.388,6.388,0,0,1,45.83,47.336Z" fill="#fff"/>
    <path d="M71.974,50.6a7.088,7.088,0,0,0-7.024-6.374,4.981,4.981,0,0,0-.772.04,8.564,8.564,0,0,0-9.094-7.024A9.262,9.262,0,0,0,46,33.988a9.132,9.132,0,0,0-6.748,5.966,7.542,7.542,0,0,0-6.092,3.492A7.488,7.488,0,1,0,31.5,58.232H65.356a1.867,1.867,0,0,0,.69-.122,7.08,7.08,0,0,0,5.926-7.51Zm-6.132,6.454c2.844-.446-.162.042,0,0a1.37,1.37,0,0,1-.4.082H31.5a6.4,6.4,0,1,1,2.2-12.382,6.459,6.459,0,0,1,6.364-3.662A8.088,8.088,0,0,1,54.6,38.414a7.433,7.433,0,0,1,8.509,6.174A7.3,7.3,0,0,1,63.2,45.6a5.9,5.9,0,1,1,2.638,11.45Z" fill="#fff"/>
  </g>
</svg>
