<svg id="Layer_1" data-name="Layer 1" xmlns="http://www.w3.org/2000/svg" xmlns:xlink="http://www.w3.org/1999/xlink" width="96" height="96" viewBox="0 0 96 96">
  <defs>
    <linearGradient id="linear-gradient" x1="48" y1="488" x2="48" y2="392" gradientTransform="translate(0 -392)" gradientUnits="userSpaceOnUse">
      <stop offset="0" stop-color="#005173"/>
      <stop offset="1" stop-color="#2accff"/>
    </linearGradient>
  </defs>
  <circle cx="48" cy="48" r="48" fill="url(#linear-gradient)"/>
  <g>
    <polygon points="46.394 49.654 47.876 50.367 49.358 49.654 49.742 48.062 48.699 46.745 47.052 46.745 46.01 48.062 46.394 49.654" fill="#fff"/>
    <path d="M71.973,52.069,67.8,34.12a3.554,3.554,0,0,0-1.757-2.031L49.3,24.075a3.063,3.063,0,0,0-1.372-.274,5.844,5.844,0,0,0-1.373.109L29.817,31.979A2.952,2.952,0,0,0,28.17,34.01L24.053,52.069a3.467,3.467,0,0,0,.6,2.635L36.239,69.03a4,4,0,0,0,2.525,1.153H57.207a2.736,2.736,0,0,0,2.525-1.153L71.314,54.7A3.754,3.754,0,0,0,71.973,52.069Zm-6.862,1.208a.494.494,0,0,1-.274-.055c-.055-.055-.055-.055-.11-.055-.11,0-.165-.055-.22-.055a2.933,2.933,0,0,1-.6-.275.78.78,0,0,1-.33-.109h-.055a9.112,9.112,0,0,0-1.756-.494h-.055a.626.626,0,0,0-.439.164.054.054,0,0,1-.055.055l-.439-.055a13.566,13.566,0,0,1-5.928,7.465l.165.44a.054.054,0,0,0-.055.054.649.649,0,0,0-.055.549A6.472,6.472,0,0,0,55.78,62.5v.11a.976.976,0,0,1,.22.274,2,2,0,0,1,.384.549c.055.055.11.11.11.165a.053.053,0,0,1,.054.055,1.408,1.408,0,0,1,.055.823.917.917,0,0,1-.494.6,1.283,1.283,0,0,1-.439.11,1.232,1.232,0,0,1-1.043-.659.054.054,0,0,1-.055-.055c-.055-.055-.055-.11-.109-.164a1.974,1.974,0,0,1-.22-.6l-.11-.33v-.055a9.293,9.293,0,0,0-.713-1.7.85.85,0,0,0-.439-.329c0-.055,0-.055-.055-.055l-.22-.385a16.194,16.194,0,0,1-1.756.494,10.97,10.97,0,0,1-2.964.385,12.919,12.919,0,0,1-4.776-.879l-.219.44c0,.054,0,.054-.055.054a.849.849,0,0,0-.439.33,9.3,9.3,0,0,0-.714,1.7l-.11.33c-.055.219-.164.384-.219.6-.055.054-.11.109-.11.164a.054.054,0,0,0-.055.055,1.232,1.232,0,0,1-1.043.659,1.015,1.015,0,0,1-.384-.11,1.129,1.129,0,0,1-.439-1.482.054.054,0,0,0,.055-.055c.054-.055.054-.11.109-.165.165-.219.275-.439.385-.549a.961.961,0,0,0,.219-.274V62.5a8.926,8.926,0,0,0,.878-1.592.652.652,0,0,0-.054-.549.054.054,0,0,1-.055-.054l.274-.385a8.63,8.63,0,0,1-1.482-.988,13.241,13.241,0,0,1-4.5-6.422l-.494.055a.054.054,0,0,0-.055-.055.622.622,0,0,0-.439-.165h-.055a9.84,9.84,0,0,0-1.811.494h-.055a.773.773,0,0,0-.329.11c-.165.055-.385.165-.6.22-.055,0-.22-.055-.22,0s0,.055-.055.055a.491.491,0,0,1-.274.055,1.021,1.021,0,0,1-1.1-.769,1.07,1.07,0,0,1,.878-1.262c.055-.055.055-.055.11-.055.11,0,.165-.055.22-.055.219,0,.439-.055.658-.055a.7.7,0,0,1,.33-.055,10.273,10.273,0,0,0,1.866-.329.867.867,0,0,0,.384-.384.054.054,0,0,0,.055-.055l.439-.11a13.037,13.037,0,0,1,1.921-9c.055-.11.11-.165.165-.275l-.324-.324a.4.4,0,0,1,0,.05v-.055l0,0a.588.588,0,0,0-.17-.444,7.82,7.82,0,0,0-1.537-1.1l-.329-.164a5.976,5.976,0,0,1-.6-.33c-.055,0-.165-.11-.165-.11a.054.054,0,0,0-.055-.055,1.179,1.179,0,0,1-.219-1.536.829.829,0,0,1,.768-.385,1.311,1.311,0,0,1,.769.275l.055.055c.054.055.109.055.164.109.165.165.275.33.439.494.055.055.165.11.22.22a10.166,10.166,0,0,0,1.372,1.263.794.794,0,0,0,.33.109c.109,0,.164-.055.219-.055h.055l.329.22a13.089,13.089,0,0,1,6.752-3.842c.659-.11,1.262-.22,1.866-.275l.055-.439v-.11a.744.744,0,0,0,.274-.439,10.419,10.419,0,0,0-.109-1.866v-.055a.692.692,0,0,0-.055-.329,2.753,2.753,0,0,1-.11-.659v-.274a1.087,1.087,0,0,1,.329-.769,1.1,1.1,0,0,1,.933-.384,1.088,1.088,0,0,1,.934,1.153v.329c-.055.219-.055.439-.11.659,0,.109-.055.219-.055.329V32.2a10.936,10.936,0,0,0-.11,1.866.753.753,0,0,0,.275.439v-.055l.054.439a14.069,14.069,0,0,1,7.136,2.855c.439.439.933.878,1.372,1.317l.44-.274h.054a.331.331,0,0,0,.22.055.773.773,0,0,0,.329-.11,7.275,7.275,0,0,0,1.373-1.208c.054-.055.164-.11.219-.219a3.55,3.55,0,0,1,.439-.494c.055,0,.11-.055.165-.11l.055-.055a1.308,1.308,0,0,1,.768-.275,1.048,1.048,0,0,1,.769.385,1.074,1.074,0,0,1-.22,1.537c0,.054.055.054,0,.109s-.11.055-.164.11c-.22.11-.385.22-.6.33l-.33.164a9.871,9.871,0,0,0-1.536,1.1.765.765,0,0,0-.165.494v.055l-.33.329a14.868,14.868,0,0,1,1.922,4.5,14.317,14.317,0,0,1,.219,4.831l.439.109a.664.664,0,0,0,.385.385,11.15,11.15,0,0,0,1.866.329H63.9a.692.692,0,0,0,.329.055,2.67,2.67,0,0,1,.659.055c.11,0,.219,0,.219.055s.055.054.11.054a1.3,1.3,0,0,1,.988,1.153A1.2,1.2,0,0,1,65.111,53.277Z" fill="#fff"/>
    <path d="M56.988,42.847,52.871,46.58a.889.889,0,0,0-.22.384.9.9,0,0,0,.659,1.1l5.214,1.482a10.514,10.514,0,0,0-.219-3.458A11.214,11.214,0,0,0,56.988,42.847Z" fill="#fff"/>
    <path d="M49.632,43.781A.934.934,0,0,0,50.84,44l4.5-3.183a10.335,10.335,0,0,0-6.2-2.965l.33,5.544A.5.5,0,0,0,49.632,43.781Z" fill="#fff"/>
    <path d="M45.3,44.165a.914.914,0,0,0,.933-.878L46.5,37.8l-1.1.219a10.894,10.894,0,0,0-5.1,2.8l4.556,3.238A1.289,1.289,0,0,0,45.3,44.165Z" fill="#fff"/>
    <path d="M42.881,47.733a.883.883,0,0,0-.11-1.263l-4.062-3.623a11.566,11.566,0,0,0-1.592,6.7l5.325-1.537A.621.621,0,0,0,42.881,47.733Z" fill="#fff"/>
    <path d="M43.21,51.191l-5.434.933A10.792,10.792,0,0,0,42,57.5l2.085-5.05a.648.648,0,0,0,.055-.549A.9.9,0,0,0,43.21,51.191Z" fill="#fff"/>
    <path d="M48.205,53.551a.851.851,0,0,0-1.1.22l-2.689,4.885a12.314,12.314,0,0,0,3.458.549,11.083,11.083,0,0,0,2.36-.275,8.893,8.893,0,0,1,1.043-.219l-2.635-4.776A2.748,2.748,0,0,0,48.205,53.551Z" fill="#fff"/>
    <path d="M51.993,51.246a.891.891,0,0,0-.494,1.043l2.14,5.159a10.482,10.482,0,0,0,3.294-3.293,8.277,8.277,0,0,0,1.043-2.086l-5.489-.933A1.594,1.594,0,0,0,51.993,51.246Z" fill="#fff"/>
  </g>
</svg>
