<svg id="Layer_1" data-name="Layer 1" xmlns="http://www.w3.org/2000/svg" xmlns:xlink="http://www.w3.org/1999/xlink" width="96" height="96" viewBox="0 0 96 96">
  <defs>
    <linearGradient id="linear-gradient" x1="48" y1="154" x2="48" y2="250" gradientTransform="matrix(1, 0, 0, -1, 0, 250)" gradientUnits="userSpaceOnUse">
      <stop offset="0" stop-color="#005173"/>
      <stop offset="1" stop-color="#2accff"/>
    </linearGradient>
  </defs>
  <circle cx="48" cy="48" r="48" fill="url(#linear-gradient)"/>
  <path d="M66.223,49.142a6.049,6.049,0,0,0,.6.332c.176.1.354.186.53.281.136.072.4.226.236.4-.1.118-.342.1-.484.12a3.649,3.649,0,0,1-.724,0c-.276-.024-.562.04-.842.04h-.6c-.072,0-.164.018-.212-.046a.156.156,0,0,1,.024-.2,1.71,1.71,0,0,1,.15-.2c.052-.044.12-.076.172-.116.126-.1.17-.2.058-.327a.569.569,0,0,1-.2-.4c0-.226.136-.272.328-.322.288-.072.264-.024.5.114C65.885,48.91,66.169,49.1,66.223,49.142Zm-36.736.09a5.445,5.445,0,0,1-.618.316c-.176.092-.358.176-.536.267-.138.07-.4.216-.248.4.1.12.34.108.482.132a3.506,3.506,0,0,0,.724.02c.276-.018.562.054.84.062.2,0,.4.02.6.024.072,0,.162.022.214-.042a.158.158,0,0,0-.02-.2,1.1,1.1,0,0,0-.146-.2c-.05-.048-.116-.08-.168-.122-.122-.1-.164-.2-.048-.327a.554.554,0,0,0,.2-.386c.012-.224-.122-.312-.32-.33-.254-.022-.244.032-.5.126A4.188,4.188,0,0,0,29.487,49.232Zm42.285,1.6c-1.564,1.8-4.531.9-9.429,3.244-6.5,3.11-6.926,4.96-14.4,5.012-7.734.054-7.91-2.068-14.761-5.122-5.4-2.4-8.4-1.328-9.044-3.216-.872-2.479,2.6-4.763,4.508-6.1,8.625-6.082,12.385-7.718,19.111-7.712,7.223-.412,14.2,3.83,19.425,7.706,1.861,1.38,5.8,4.024,4.591,6.185Zm-23.53-1.547v1.534a3.377,3.377,0,0,0,3.037-3.073H49.744a1.838,1.838,0,0,1-1.5,1.534Zm.884-1.536h-.884v.918a1.23,1.23,0,0,0,.884-.924Zm.01-.6a1.246,1.246,0,0,0-.892-.952v.954Zm-4.51,0h1.55a1.854,1.854,0,0,1,1.466-1.566V44.01a3.381,3.381,0,0,0-3.016,3.142Zm3.014,1.5v-.9H46.8a1.238,1.238,0,0,0,.842.9Zm-1.456-.9H44.63a3.379,3.379,0,0,0,3,3.057v-1.54a1.842,1.842,0,0,1-1.446-1.516Zm1.458-.6V46.2a1.248,1.248,0,0,0-.854.944Zm3.639,0a3.381,3.381,0,0,0-3.037-3.132v1.57a1.845,1.845,0,0,1,1.5,1.566ZM44.6,55.211a8.6,8.6,0,0,1-5.446-7.957,8.453,8.453,0,0,1,1.8-5.218,65.73,65.73,0,0,0-10.663,6.49c-.82.568-3.3,1.231-2.712,1.779.44.412,2.8.11,4.562.66C38.4,52.925,41.22,54.551,44.6,55.211Zm21.18-6.665a53.479,53.479,0,0,0-10.834-6.494,8.441,8.441,0,0,1,1.8,5.2,8.6,8.6,0,0,1-5.132,7.821c4.048-.932,8.076-3.074,11.92-4.138,2.628-.726,3.656-.136,4.8-.714C68.8,50,66.449,49.026,65.779,48.546Z" fill="#fff"/>
</svg>
