<svg id="Layer_1" data-name="Layer 1" xmlns="http://www.w3.org/2000/svg" xmlns:xlink="http://www.w3.org/1999/xlink" width="96" height="96" viewBox="0 0 96 96">
  <defs>
    <linearGradient id="linear-gradient" x1="48" y1="488" x2="48" y2="392" gradientTransform="translate(0 -392)" gradientUnits="userSpaceOnUse">
      <stop offset="0" stop-color="#005173"/>
      <stop offset="1" stop-color="#2accff"/>
    </linearGradient>
  </defs>
  <circle cx="48" cy="48" r="48" fill="url(#linear-gradient)"/>
  <path d="M71.194,45.005,62.208,29.414a6.047,6.047,0,0,0-5.184-3H38.976a6,6,0,0,0-5.184,3L24.806,44.928a6.038,6.038,0,0,0,0,6.029L29.3,58.675c0,.039.039.039.039.077l6.451,10.829H57.024a5.954,5.954,0,0,0,5.184-3L71.194,51A5.966,5.966,0,0,0,71.194,45.005ZM27.84,46.694l8.986-15.513a2.5,2.5,0,0,1,2.15-1.229h5.99L30.835,54.374l-3-5.184A2.425,2.425,0,0,1,27.84,46.694ZM53.722,41.7,57.37,48,47,66.086H39.629ZM68.16,49.229l-8.986,15.59a2.533,2.533,0,0,1-2.15,1.267h-5.99l9.868-17.2a2.182,2.182,0,0,0,.192-.537h0v-.807c0-.038,0-.038-.038-.077v-.038a.766.766,0,0,0-.154-.307l-5.644-9.792a3.27,3.27,0,0,0-.269-.384,1.777,1.777,0,0,0-1.229-.5h0a.853.853,0,0,0-.307.038h-.077a1.706,1.706,0,0,0-1,.614h0a.038.038,0,0,1-.039.039c-.038.038-.077.115-.115.153L36.557,64.32l-3.725-6.451,16.2-27.955h7.987a2.408,2.408,0,0,1,2.15,1.267L68.16,46.733A2.425,2.425,0,0,1,68.16,49.229Z" fill="#fff"/>
</svg>
