<?xml version="1.0" encoding="utf-8"?>
<!-- Generator: Adobe Illustrator 23.0.2, SVG Export Plug-In . SVG Version: 6.00 Build 0)  -->
<svg version="1.1" id="Layer_1" xmlns="http://www.w3.org/2000/svg" xmlns:xlink="http://www.w3.org/1999/xlink" x="0px" y="0px"
	 viewBox="0 0 96 96" style="enable-background:new 0 0 96 96;" xml:space="preserve">
<style type="text/css">
	.st0{fill:url(#SVGID_1_);}
	.st1{fill:#FFFFFF;}
</style>
<linearGradient id="SVGID_1_" gradientUnits="userSpaceOnUse" x1="48" y1="96" x2="48" y2="-9.094947e-13">
	<stop  offset="0" style="stop-color:#005173"/>
	<stop  offset="1" style="stop-color:#2ACCFF"/>
</linearGradient>
<circle class="st0" cx="48" cy="48" r="48"/>
<path class="st1" d="M30,44c-3.4,0-6,2.8-6,6s2.8,6,6,6s6-2.8,6-6S33.4,44,30,44L30,44z M30,53c-1.6,0-3-1.4-3-3s1.4-3,3-3
	s3,1.4,3,3l0,0C33,51.8,31.8,53,30,53z"/>
<path class="st1" d="M40.6,52c0-0.2,0.2-0.6,0.6-0.6c0.2,0,0.2,0,0.4,0.2c1.6,1.6,4,4.2,4,4.2l0.2,0.2H46h2.8c0.2,0,0.6-0.2,0.6-0.6
	c0-0.2,0-0.2-0.2-0.4l-4.6-4.6l-0.2-0.2c-0.6-0.6-0.4-0.8,0.2-1.4l3.6-4c0.2-0.2,0.2-0.6,0-0.8c0,0-0.2-0.2-0.4-0.2h-2.4h-0.2
	c0,0-0.2,0-0.2,0.2c0,0-2,2.2-3.2,3.4c-0.2,0.2-0.6,0.2-0.8,0c-0.2-0.2-0.2-0.2-0.2-0.4v-6.6c-0.2-0.2-0.4-0.4-0.6-0.4l0,0H38
	c-0.2-0.2-0.4,0-0.4,0.4l0,0v15.2c0,0.2,0.2,0.4,0.4,0.4h2c0.2,0,0.6-0.2,0.6-0.4V52L40.6,52z"/>
<path class="st1" d="M57,55.4l-0.2-2c0-0.2-0.2-0.4-0.6-0.4l0,0c-1.6,0.2-3.2-0.8-3.4-2.4c0-0.2,0-0.2,0-0.4v-2.6
	c0-0.4,0.2-0.6,0.6-0.6h2.8c0.2,0,0.4-0.2,0.4-0.6v-2c0-0.2-0.2-0.6-0.4-0.6l0,0h-2.6c-0.4,0-0.6-0.2-0.6-0.6v-2.8
	c0-0.2-0.2-0.4-0.4-0.4l0,0h-2.2c-0.2,0-0.4,0.2-0.4,0.4l0,0v9.8c0,3.2,2.8,5.8,6,5.8c0.2,0,0.6,0,0.8,0C56.8,56,57,55.8,57,55.4
	L57,55.4z"/>
<path class="st1" d="M71.6,53c-1.6,0-2-0.6-2-3v-5.6c0-0.2-0.2-0.6-0.6-0.6l0,0h-2c-0.2,0-0.6,0.2-0.6,0.6v0.2
	c-2.8-1.6-6.6-0.6-8.2,2.2c-1.6,2.8-0.6,6.6,2.2,8.2c0.6,0.4,1.4,0.6,2,0.8c1.8,0.2,3.6-0.2,5-1.4c0.6,0.8,1.4,1.4,3,1.4
	c0.2,0,1.6,0,1.6-0.6V53C72,53.2,71.8,53,71.6,53z M63.6,53c-1.6,0-3-1.4-3-3s1.4-3,3-3s3,1.4,3,3C66.6,51.8,65.4,53,63.6,53z"/>
</svg>
