<?xml version="1.0" encoding="utf-8"?>
<!-- Generator: Adobe Illustrator 23.0.2, SVG Export Plug-In . SVG Version: 6.00 Build 0)  -->
<svg version="1.1" id="Layer_1" xmlns="http://www.w3.org/2000/svg" xmlns:xlink="http://www.w3.org/1999/xlink" x="0px" y="0px"
	 viewBox="0 0 96 96" style="enable-background:new 0 0 96 96;" xml:space="preserve">
<style type="text/css">
	.st0{fill:url(#SVGID_1_);}
	.st1{fill:#FFFFFF;}
</style>
<linearGradient id="SVGID_1_" gradientUnits="userSpaceOnUse" x1="48" y1="96" x2="48" y2="-9.094947e-13">
	<stop  offset="0" style="stop-color:#005173"/>
	<stop  offset="1" style="stop-color:#2ACCFF"/>
</linearGradient>
<circle class="st0" cx="48" cy="48" r="48"/>
<path class="st1" d="M48,24c-13.3,0-24,10.7-24,24s10.7,24,24,24s24-10.7,24-24S61.3,24,48,24z M51.6,43.7v13c0,0.3-0.2,0.5-0.5,0.5
	c0,0,0,0,0,0h-4.5c-0.3,0-0.5-0.2-0.5-0.5V46.2h-3.4c-0.3,0-0.5-0.2-0.5-0.5v-4.5c0-0.3,0.2-0.5,0.5-0.5H51c0.3,0,0.5,0.2,0.5,0.5
	V43.7z"/>
</svg>
