<svg id="Layer_1" data-name="Layer 1" xmlns="http://www.w3.org/2000/svg" xmlns:xlink="http://www.w3.org/1999/xlink" width="96" height="96" viewBox="0 0 96 96">
  <defs>
    <linearGradient id="linear-gradient" x1="48" x2="48" y2="96" gradientTransform="matrix(1, 0, 0, -1, 0, 96)" gradientUnits="userSpaceOnUse">
      <stop offset="0" stop-color="#005173"/>
      <stop offset="1" stop-color="#2accff"/>
    </linearGradient>
  </defs>
  <title>open-shift</title>
  <circle cx="48" cy="48" r="48" fill="url(#linear-gradient)"/>
  <g>
    <path d="M37.924,45.727l-7.708,2.8a22.375,22.375,0,0,0,.6,3.656l7.324-2.668a14.325,14.325,0,0,1-.226-3.8" fill="#fff"/>
    <path d="M72,37.205a21.847,21.847,0,0,0-1.89-3.2L62.4,36.819a14.4,14.4,0,0,1,2.264,3.05Z" fill="#fff"/>
    <path d="M55.038,35.019A14.242,14.242,0,0,1,59.2,37.995l7.712-2.8A22.034,22.034,0,0,0,27,49.721L34.7,46.9A14.29,14.29,0,0,1,55.026,35.019" fill="#fff"/>
    <path d="M31.308,52.015,24,54.683a22.334,22.334,0,0,0,3.442,7.464l7.674-2.8A14.4,14.4,0,0,1,31.3,52.015" fill="#fff"/>
    <path d="M63.26,49.107a14.088,14.088,0,0,1-1.294,4.942A14.334,14.334,0,0,1,42.938,61a14.147,14.147,0,0,1-4.174-2.964l-7.7,2.806A21.853,21.853,0,0,0,39.644,68,22.079,22.079,0,0,0,68.95,57.327a21.845,21.845,0,0,0,1.984-11.012Z" fill="#fff"/>
    <path d="M65.17,39.7l-7.324,2.668a14.378,14.378,0,0,1,1.8,8.064l7.7-2.8a22.221,22.221,0,0,0-2.166-7.936" fill="#fff"/>
    <path d="M37.894,47.279a14.282,14.282,0,0,1,.03-1.548l-7.708,2.8c.038.494.1.984.178,1.474Z" fill="#fff"/>
    <path d="M70.88,35.175c-.242-.41-.494-.782-.762-1.16l-7.706,2.8a13.237,13.237,0,0,1,.946,1.09Z" fill="#fff"/>
    <path d="M31.06,60.837a22.006,22.006,0,0,0,1.96,2.38l8.38-3.056a14.056,14.056,0,0,1-2.642-2.128ZM70.934,46.309l-7.69,2.8A14.146,14.146,0,0,1,62.6,52.4l8.374-3.054a21.951,21.951,0,0,0-.028-3.056" fill="#fff"/>
  </g>
</svg>
