<svg id="Layer_1" data-name="Layer 1" xmlns="http://www.w3.org/2000/svg" xmlns:xlink="http://www.w3.org/1999/xlink" width="96" height="96" viewBox="0 0 96 96">
  <defs>
    <linearGradient id="linear-gradient" x1="48" y1="-428" x2="48" y2="-332" gradientTransform="matrix(1, 0, 0, -1, 0, -332)" gradientUnits="userSpaceOnUse">
      <stop offset="0" stop-color="#005173"/>
      <stop offset="1" stop-color="#2accff"/>
    </linearGradient>
  </defs>
  <circle cx="48" cy="48" r="48" fill="url(#linear-gradient)"/>
  <path d="M67.724,31.024S61.124,24,48,24h0c-13.13,0-19.724,7.024-19.724,7.024A92.62,92.62,0,0,0,28,46.69C28.73,62.5,48,72,48,72s19.27-9.5,20-25.31A92.62,92.62,0,0,0,67.724,31.024ZM57.2,57.26a17.337,17.337,0,0,1-5.936-1.52c2.876-1.836,6.6-5.4,6.6-9.748A9.877,9.877,0,0,0,48,36.13a10.012,10.012,0,0,0-9.854,10.14c0,4.664,2.472,8.326,7.344,10.882A40.873,40.873,0,0,0,58.46,60.7a17.129,17.129,0,0,1-4.368,4.092,30.448,30.448,0,0,1-14.916-6.2A16.293,16.293,0,0,1,33.268,46v-.1a14.732,14.732,0,0,1,29.464.1h0A14.237,14.237,0,0,1,57.2,57.26Z" fill="#fff"/>
</svg>
