<svg id="Layer_1" data-name="Layer 1" xmlns="http://www.w3.org/2000/svg" xmlns:xlink="http://www.w3.org/1999/xlink" width="96" height="96" viewBox="0 0 96 96">
  <defs>
    <linearGradient id="linear-gradient" x1="48" x2="48" y2="96" gradientTransform="matrix(1, 0, 0, -1, 0, 96)" gradientUnits="userSpaceOnUse">
      <stop offset="0" stop-color="#005173"/>
      <stop offset="1" stop-color="#2accff"/>
    </linearGradient>
  </defs>
  <title>sentinel-one</title>
  <circle cx="48" cy="48" r="48" fill="url(#linear-gradient)"/>
  <path d="M44.764,62.684V24h6.48V62.684ZM52.782,72V31.726a16.016,16.016,0,0,1,6.446,2.858V68.02ZM36.77,68.02V34.584a16.016,16.016,0,0,1,6.446-2.858V72ZM60.8,25.9s6.436,7.848,6.436,13.5V58.936a7.642,7.642,0,0,1-3.436,6.5l-3,1.862ZM28.764,58.928V39.4c0-5.65,6.446-13.5,6.446-13.5V67.3L32.2,65.44A7.639,7.639,0,0,1,28.764,58.928Z" fill="#fff"/>
</svg>
