<svg id="Layer_1" data-name="Layer 1" xmlns="http://www.w3.org/2000/svg" xmlns:xlink="http://www.w3.org/1999/xlink" width="96" height="96" viewBox="0 0 96 96">
  <defs>
    <linearGradient id="linear-gradient" x1="48" y1="-428" x2="48" y2="-332" gradientTransform="matrix(1, 0, 0, -1, 0, -332)" gradientUnits="userSpaceOnUse">
      <stop offset="0" stop-color="#005173"/>
      <stop offset="1" stop-color="#2accff"/>
    </linearGradient>
  </defs>
  <circle cx="48" cy="48" r="48" fill="url(#linear-gradient)"/>
  <g>
    <path d="M34.084,54.332a5.042,5.042,0,1,1-5.042-5.042h5.042Z" fill="#fff"/>
    <path d="M36.626,54.332a5.042,5.042,0,0,1,10.084,0V66.958a5.042,5.042,0,0,1-10.084,0Z" fill="#fff"/>
    <path d="M41.668,34.084a5.042,5.042,0,1,1,5.042-5.042h0v5.042Z" fill="#fff"/>
    <path d="M41.668,36.626a5.042,5.042,0,0,1,.005,10.084H29.042a5.042,5.042,0,0,1,0-10.084Z" fill="#fff"/>
    <path d="M61.916,41.668a5.042,5.042,0,1,1,5.042,5.042H61.916Z" fill="#fff"/>
    <path d="M59.374,41.668a5.042,5.042,0,0,1-10.084,0V29.042a5.042,5.042,0,0,1,10.084,0Z" fill="#fff"/>
    <path d="M54.332,61.916a5.042,5.042,0,1,1-5.042,5.042h0V61.916Z" fill="#fff"/>
    <path d="M54.332,59.374a5.042,5.042,0,0,1,0-10.084H66.958a5.042,5.042,0,0,1,0,10.084Z" fill="#fff"/>
  </g>
</svg>
