<svg id="Layer_1" data-name="Layer 1" xmlns="http://www.w3.org/2000/svg" xmlns:xlink="http://www.w3.org/1999/xlink" width="96" height="96" viewBox="0 0 96 96">
  <defs>
    <linearGradient id="linear-gradient" x1="48" y1="488" x2="48" y2="392" gradientTransform="translate(0 -392)" gradientUnits="userSpaceOnUse">
      <stop offset="0" stop-color="#005173"/>
      <stop offset="1" stop-color="#2accff"/>
    </linearGradient>
  </defs>
  <circle cx="48" cy="48" r="48" fill="url(#linear-gradient)"/>
  <g>
    <path d="M58.131,63.664a7.614,7.614,0,0,1-2.392,1.482,26.893,26.893,0,0,1-3.287.847c-1.165.262-1.693.509-2.116.618a7.908,7.908,0,0,1-2.59.048.682.682,0,0,0,.214.4,4.272,4.272,0,0,0,1.972.641,12.424,12.424,0,0,0,2.306.024,4.462,4.462,0,0,0,1.735-.356,14.882,14.882,0,0,0,3.659-2.282C58.3,64.3,58.25,63.427,58.131,63.664Z" fill="#fff"/>
    <path d="M65.784,46.183l-.043-.095a13.16,13.16,0,0,0-5.263-5.257l11.157-4.472L55.26,34.264l10.487-6.7L49.774,30.5l5.1-7.466L41.838,29.431,44.7,23.072l-15.09,8.95,5.057,11.484c-2.646,2.162-3.485,5.866-3.685,6.994-.121.009-.262.022-.416.041l-.93-.922-.5,1.24A6.514,6.514,0,0,0,28.1,51.3L26.9,50.807v1.348c-.093.089-.191.17-.279.269a6.37,6.37,0,0,0-1.059,1.988,7.981,7.981,0,0,0-.067,3.436,6.282,6.282,0,0,0,1.414,2.82A4.629,4.629,0,0,0,30.161,62.3c.152.012.3.018.442.018a3.648,3.648,0,0,0,1.1-.168,14.532,14.532,0,0,0,.54,1.532c.989,2.448,1.977,3.074,2.569,3.449.078.05.15.095.213.141a18.031,18.031,0,0,0,4.153,1.447l0,.014.008-.011c.211.048.4.087.566.112a20.587,20.587,0,0,1,3.266.826c.142.057.5.219.958.428,1.075.487,2.7,1.224,3.579,1.529A6.857,6.857,0,0,0,49.777,72a4.9,4.9,0,0,0,1.733-.292c.892-.34,2.513-1.136,3.132-1.468a6.847,6.847,0,0,1,2.336-.735,9.214,9.214,0,0,0,5.365-1.8,11.74,11.74,0,0,0,4.891-8.549,23.848,23.848,0,0,0-.767-11.3l2.783.618Zm-2.012-1.331-5.027-3.326.517-.207A12.955,12.955,0,0,1,63.772,44.852Zm-31.3-11.7,8.349-5.731L38.34,33.552,48.953,28,46,33.612,56.462,31.2l-5.771,4.307,12.42,2.07L54.338,41.7l6.089,3.02-7.5-1.439,4.825,6.445-4.034-1.491a17.858,17.858,0,0,0-2.331-3.684,9.879,9.879,0,0,0-8.411-3.844A11.858,11.858,0,0,0,35.355,43ZM28.682,59.786a.914.914,0,1,1,.893.721A.821.821,0,0,1,28.682,59.786ZM30.237,61.3a3.887,3.887,0,0,1-.862-.165,1.633,1.633,0,0,0,.2.018,1.38,1.38,0,1,0-1.544-1.371,1.271,1.271,0,0,0,.358.867,3.091,3.091,0,0,1-.687-.6,5.354,5.354,0,0,1-1.23-2.44,7.026,7.026,0,0,1,.057-2.932,5.345,5.345,0,0,1,.844-1.594c.043-.048.091-.086.135-.131l1.107-.213v-.6a5.492,5.492,0,0,1,.9-.365l.477.428.564-.661c.1-.014.2-.027.292-.036-.026.263-.054.6-.08.979a9,9,0,0,0-1.494.265c-2.036.652-2.262,3.4-2.213,3.959a1.376,1.376,0,0,0,1.521,1.452c.206,0,1.3-.008,2.335-.016,0,.018,0,.036.007.054.213,1.347.379,2.278.537,3A3.083,3.083,0,0,1,30.237,61.3Zm.6-3.8c-1.012.008-2.051.016-2.252.016-.814,0-.846-.45-.873-.848l-.008-.092c-.028-.319.168-2.688,1.773-3.2a8.01,8.01,0,0,1,1.255-.224A27.311,27.311,0,0,0,30.835,57.5Zm4.773,8.971c-.079-.057-.168-.114-.266-.176-.523-.331-1.311-.831-2.18-2.983a13.034,13.034,0,0,1-.554-1.61l-.083-.341c-.145-.6-.294-1.372-.475-2.471l5.108,1.951L38.9,67.633A17.222,17.222,0,0,1,35.608,66.472Zm3.875.821-1.778-6.938-5.776-2.206c0-.036-.01-.063-.016-.1-.02-.129-.037-.261-.054-.392-.011-.086-.023-.172-.033-.259-.008-.066-.014-.133-.021-.2l5.186-3.286.223-7.342,5.656,4.788,6.987-2.091-2.712,6.8,3.923,6-7.206-.379Zm26.771-8.274a10.806,10.806,0,0,1-4.475,7.873,8.392,8.392,0,0,1-4.8,1.625,7.535,7.535,0,0,0-2.8.85c-.583.313-2.177,1.1-3.017,1.416a5.075,5.075,0,0,1-3.273-.1c-.837-.29-2.437-1.016-3.495-1.5-.48-.218-.851-.386-1-.445a21.483,21.483,0,0,0-3.483-.886l-.034-.007,4.293-5.492,8.147.429L47.873,56l3.086-7.74-7.938,2.377L36.6,45.2l-.251,8.344L31.742,56.47c-.028-.412-.045-.821-.052-1.22v0c0-.182,0-.361,0-.537v0a32.579,32.579,0,0,1,.219-3.666l.025-.2c.119-.73.875-4.7,3.544-6.719a10.878,10.878,0,0,1,7.49-2.418,9.009,9.009,0,0,1,7.653,3.476A19.481,19.481,0,0,1,53.1,48.8l.01-.007-.006.012,9.011,4.814-5.465-7.947,8.68,1.929C67.005,51.76,66.664,56.1,66.254,59.019Z" fill="#fff"/>
    <circle cx="39.484" cy="57.239" r="0.499" fill="#fff"/>
    <path d="M62.267,57.652a2.893,2.893,0,0,1-.571,1.521,3.034,3.034,0,0,1-1.758,1.164,7.008,7.008,0,0,1-1.878.095,4.8,4.8,0,0,1-2.852-1.592,4.206,4.206,0,0,1-.359-.583l-1.138.3a29.175,29.175,0,0,0,2.282,2.21,9.229,9.229,0,0,0,1.568.99,3.277,3.277,0,0,0,1.141.317,4.786,4.786,0,0,0,1.307-.024,5.487,5.487,0,0,0,2-.95A9.124,9.124,0,0,0,64.1,58.674a13.9,13.9,0,0,0,.808-1.783c.182-.5.427-1.378.427-1.378L62,56.386A3.012,3.012,0,0,1,62.267,57.652Z" fill="#fff"/>
    <path d="M61.4,57.821a.5.5,0,1,0-.5-.5A.5.5,0,0,0,61.4,57.821Z" fill="#fff"/>
    <polygon points="39.068 56.289 39.064 56.288 39.064 56.288 39.068 56.289 39.068 56.289" fill="#fff"/>
    <path d="M45.37,60.218c.308-.237,1.758-1.711,1.853-1.782a12.867,12.867,0,0,0-1.344-.388,3.287,3.287,0,0,1-.3.721,3.979,3.979,0,0,1-2.21,1.449,4.515,4.515,0,0,1-3.137-.428,2.517,2.517,0,0,1-1.164-1.164,3.278,3.278,0,0,1-.286-1.6,1.544,1.544,0,0,1,.278-.734l-3.248-.823s.759,2.011,1.069,2.543a10.624,10.624,0,0,0,2.852,3.3,4.069,4.069,0,0,0,2.353.547,6.247,6.247,0,0,0,1.83-.594C44.4,60.979,45.061,60.456,45.37,60.218Z" fill="#fff"/>
  </g>
</svg>
