<svg id="Layer_1" data-name="Layer 1" xmlns="http://www.w3.org/2000/svg" xmlns:xlink="http://www.w3.org/1999/xlink" width="96" height="96" viewBox="0 0 96 96">
  <defs>
    <linearGradient id="linear-gradient" x1="48" y1="-428" x2="48" y2="-332" gradientTransform="matrix(1, 0, 0, -1, 0, -332)" gradientUnits="userSpaceOnUse">
      <stop offset="0" stop-color="#005173"/>
      <stop offset="1" stop-color="#2accff"/>
    </linearGradient>
  </defs>
  <circle cx="48" cy="48" r="48" fill="url(#linear-gradient)"/>
  <g>
    <path d="M53.379,46.854l-4.226-4.2a.849.849,0,0,0-.53-.222H47.38a.852.852,0,0,0-.529.222l-4.227,4.2a.858.858,0,0,0-.218.529v1.24a.848.848,0,0,0,.218.523l4.227,4.2a.857.857,0,0,0,.529.226h1.243a.846.846,0,0,0,.53-.226l4.226-4.2a.831.831,0,0,0,.218-.523v-1.24A.847.847,0,0,0,53.379,46.854ZM50,48.027a.862.862,0,0,1-.226.526l-1.223,1.215a.862.862,0,0,1-.527.219h-.048a.868.868,0,0,1-.528-.219l-1.223-1.215a.854.854,0,0,1-.222-.526v-.048a.875.875,0,0,1,.216-.532l1.223-1.211a.854.854,0,0,1,.528-.219h.048a.851.851,0,0,1,.527.219l1.223,1.211a.887.887,0,0,1,.226.532Z" fill="#fff"/>
    <path d="M30.893,35.425l10.168,5.839a3,3,0,0,0,4.505-2.582V27a3,3,0,0,0-5.986,0v6.538l-5.7-3.273a2.985,2.985,0,1,0-3,5.162Z" fill="#fff"/>
    <path d="M40.04,48.88a2.959,2.959,0,0,0,.136-.971,3.093,3.093,0,0,0-.11-.7,2.959,2.959,0,0,0-1.4-1.787L28.513,39.578a3,3,0,0,0-4.091,1.093,2.957,2.957,0,0,0,1.06,4.046l.031.019L31.2,48l-5.68,3.261a2.983,2.983,0,0,0,3,5.158l10.158-5.841A2.961,2.961,0,0,0,40.04,48.88Z" fill="#fff"/>
    <path d="M42.808,54.352a2.955,2.955,0,0,0-1.737.388L30.893,60.577a2.985,2.985,0,0,0,3,5.162l5.7-3.271V69a3,3,0,0,0,5.986,0V57.32A2.981,2.981,0,0,0,42.808,54.352Z" fill="#fff"/>
    <path d="M65.11,60.577,54.944,54.74a2.942,2.942,0,0,0-1.733-.388,2.979,2.979,0,0,0-2.769,2.968V69a3,3,0,1,0,5.995,0V62.468l5.691,3.271a2.985,2.985,0,1,0,3-5.162H65.11Z" fill="#fff"/>
    <path d="M70.486,44.736,64.808,48l5.678,3.259a2.983,2.983,0,1,1-3,5.158L57.326,50.581a2.958,2.958,0,0,1-1.357-1.7,2.964,2.964,0,0,1,1.357-3.461l10.168-5.841a3,3,0,0,1,4.087,1.093,2.964,2.964,0,0,1-1.072,4.052Z" fill="#fff"/>
    <path d="M53.211,41.654a3,3,0,0,0,1.733-.4L65.11,35.425a2.985,2.985,0,0,0-3-5.162l-5.683,3.273V27a3,3,0,1,0-6,0V38.682A3,3,0,0,0,53.211,41.654Z" fill="#fff"/>
  </g>
</svg>
