<svg id="Layer_1" data-name="Layer 1" xmlns="http://www.w3.org/2000/svg" xmlns:xlink="http://www.w3.org/1999/xlink" width="96" height="96" viewBox="0 0 96 96">
  <defs>
    <linearGradient id="linear-gradient" x1="48" y1="-428" x2="48" y2="-332" gradientTransform="matrix(1, 0, 0, -1, 0, -332)" gradientUnits="userSpaceOnUse">
      <stop offset="0" stop-color="#005173"/>
      <stop offset="1" stop-color="#2accff"/>
    </linearGradient>
  </defs>
  <circle cx="48" cy="48" r="48" fill="url(#linear-gradient)"/>
  <g>
    <path d="M47.272,62.236a2.877,2.877,0,0,1-.568.292,1.835,1.835,0,0,0,2.588,0,2.765,2.765,0,0,1-.568-.29,1.344,1.344,0,0,1-1.452,0Z" fill="#fff"/>
    <path d="M41.35,30.692a29.136,29.136,0,0,0-2.732,7.016l.74,1.988a16.8,16.8,0,0,0,2.334-6.612Z" fill="#fff"/>
    <path d="M47.5,60.452v-.6h-.01a2.5,2.5,0,0,0-.05-.684c-.132-.306-.42-.234-.644.162,0,.018-.016.038-.024.056-.632-.456-1.274-1.024-1.274-1.46a2.885,2.885,0,0,1,.522-1.132l-.342-6.418-2.17,2.462-1.386.4a22.971,22.971,0,0,1-1.86-2.668,57.944,57.944,0,0,1,.534-8.038l.034-.314-.234-.644a11.031,11.031,0,0,0,1.746-2.864l1.478,2.428,1.06-.456A9.3,9.3,0,0,1,48,40h0v-.8h0a10.068,10.068,0,0,0-3.436.742l-.4.174-1.516-2.468-.22-1.526L42.014,37.3a11.008,11.008,0,0,1-2.232,3.948l-.132.138.35.934-.014.12a53.716,53.716,0,0,0-.5,8.378v.028a32.474,32.474,0,0,0,3,4.2l.114.14v.182a16.151,16.151,0,0,0,.7,4.652,2.4,2.4,0,0,0,2.318,1.692A2.142,2.142,0,0,0,47.5,60.452Z" fill="#fff"/>
    <path d="M52.578,45.174a3.752,3.752,0,0,0-2.692,1.47h2.948C52.972,46.5,54.136,45.174,52.578,45.174Z" fill="#fff"/>
    <path d="M42.826,47.6v.046a1.232,1.232,0,0,0,2.462,0V47.6h-.936a.544.544,0,1,1-.82.578.336.336,0,0,0,.324-.286.326.326,0,0,0-.1-.28l.014-.012Z" fill="#fff"/>
    <path d="M50.708,47.6v.046a1.232,1.232,0,0,0,2.462,0V47.6h-.936a.544.544,0,1,1-.82.578.329.329,0,0,0,.327-.333.325.325,0,0,0-.1-.233l.016-.012Z" fill="#fff"/>
    <path d="M56.674,39.65l.722-1.942a29.09,29.09,0,0,0-2.73-7.016l-.316,2.2A17.368,17.368,0,0,0,56.674,39.65Z" fill="#fff"/>
    <path d="M58.6,34.574a74.2,74.2,0,0,0-3.264-6.838l-.2-.376c-.346-.682-.61-1.174-.7-1.344L53.332,24l-1.4,9.776c-1.22-.07-2.518-.114-3.9-.114s-2.732.044-3.966.12l-.4-2.762L42.642,24,41.53,26.016c-.106.2-.442.812-.868,1.654l-.034.066a74.5,74.5,0,0,0-3.3,6.852A31.423,31.423,0,0,0,32.6,35.776v25.35L48,72,63.4,61.126V35.776A31.705,31.705,0,0,0,58.6,34.574ZM48.022,34.5c1.514,0,3.906.126,3.906.126l-.342,2.4-.516.842A10.928,10.928,0,0,0,48,37.352a10.614,10.614,0,0,0-3.062.506l-.518-.842-.34-2.388c1.216-.084,2.52-.13,3.938-.13ZM33.558,60.634V36.508a26.04,26.04,0,0,1,3.36-.908,7.987,7.987,0,0,0-.462,2.24v.236L38.12,42.55a36.593,36.593,0,0,0-.346,8.944,15.412,15.412,0,0,0,1.816,2.8l-1.074,9.9Zm22.386,4.658L48,70.982,41.38,66.24l.722-6.668a18.225,18.225,0,0,1-.5-3.842l-1.068,9.892L39.374,64.8l1.154-10.63a18.3,18.3,0,0,1-2-2.978,36.661,36.661,0,0,1,.42-8.672v-.07l-1.674-4.518v-.09c0-1.97,2.552-7.244,4.06-10.046l.738-1.37L43.63,37.3l.934,1.534.234-.076a10.467,10.467,0,0,1,3.2-.586,10.679,10.679,0,0,1,3.2.586l.236.082.932-1.54,1.56-10.87.736,1.37c1.51,2.8,4.062,8.076,4.062,10.046v.09l-1.68,4.518v.07a36.656,36.656,0,0,1,.4,8.678,18.465,18.465,0,0,1-1.97,2.958L56.624,64.79Zm6.492-4.658L57.5,64.174l-1.072-9.908a15.257,15.257,0,0,0,1.8-2.772,36.494,36.494,0,0,0-.346-8.944l1.664-4.472v-.236a8.1,8.1,0,0,0-.46-2.246,26.521,26.521,0,0,1,3.358.912Z" fill="#fff"/>
    <path d="M50.312,50.362,49.97,56.78a2.865,2.865,0,0,1,.522,1.132c0,.436-.642,1-1.274,1.46a.555.555,0,0,0-.024-.056c-.224-.4-.512-.468-.644-.164a2.507,2.507,0,0,0-.05.686h-.01v.584A2.153,2.153,0,0,0,50.372,61.7,2.4,2.4,0,0,0,52.69,60a16.188,16.188,0,0,0,.7-4.652V55.17l.114-.14c.35-.434.78-.984,1.2-1.548l-2.226-.65Z" fill="#fff"/>
    <path d="M50.04,62.7a2.43,2.43,0,0,1-4.086,0,2.991,2.991,0,0,1-.328.018h-.162c.144,1.292,1.574,1.768,2.554,1.768S50.4,64,50.532,62.716h-.16A3.061,3.061,0,0,1,50.04,62.7Z" fill="#fff"/>
    <path d="M43.418,45.174c-1.56,0-.4,1.322-.256,1.47H46.11A3.752,3.752,0,0,0,43.418,45.174Z" fill="#fff"/>
  </g>
</svg>
