<svg id="Layer_1" data-name="Layer 1" xmlns="http://www.w3.org/2000/svg" xmlns:xlink="http://www.w3.org/1999/xlink" width="96" height="96" viewBox="0 0 96 96">
  <defs>
    <linearGradient id="linear-gradient" x1="48" x2="48" y2="96" gradientTransform="matrix(1, 0, 0, -1, 0, 96)" gradientUnits="userSpaceOnUse">
      <stop offset="0" stop-color="#005173"/>
      <stop offset="1" stop-color="#2accff"/>
    </linearGradient>
  </defs>
  <title>tenable</title>
  <circle cx="48" cy="48" r="48" fill="url(#linear-gradient)"/>
  <path d="M71.943,53.29c-.14-.5-.63-2.324-1.094-4.06L67.173,35.512c-.464-1.736-.954-3.556-1.086-4.06A2.094,2.094,0,0,0,65.5,30.5a2.171,2.171,0,0,0-.96-.582l-4.06-1.088L46.771,25.146l-4.06-1.086a2.313,2.313,0,0,0-2.1.562L37.637,27.6,27.6,37.612,24.621,40.6a2.316,2.316,0,0,0-.562,2.092v.02l1.086,4.06L28.821,60.49c.464,1.73.954,3.564,1.092,4.062a2.319,2.319,0,0,0,1.538,1.536l4.06,1.092,13.718,3.678,4.06,1.086a2.349,2.349,0,0,0,2.1-.564c.4-.35,1.728-1.676,2.974-3L68.379,58.364l3-2.974A2.349,2.349,0,0,0,71.943,53.29Zm-7.678-22.3a1.022,1.022,0,0,1,.47.3,1.2,1.2,0,0,1,.3.45c.132.5.63,2.326,1.086,4.06l1.012,3.768A20.693,20.693,0,0,0,56.413,28.856l3.8,1.02Zm-2.16,31.16h0a19.859,19.859,0,0,1-12.79,5.8l2.572-1.488L62.051,60.6l2.468-1.426a20.024,20.024,0,0,1-2.414,2.956ZM47.969,67.514a.935.935,0,0,1-.444-.1l-3-1.736-.258-.148,2.836-.762,10.068-2.7.952-.256-6.7,3.862-3,1.736A.93.93,0,0,1,47.969,67.514Zm.014-39.022a.85.85,0,0,1,.45.1l3,1.728.272.158-2.8.754-10.068,2.7-1.064.286,6.746-3.894,3.02-1.72A.831.831,0,0,1,47.983,28.492Zm17.07,13.984L62.973,40.4l-7.364-7.374-.7-.7,6.67,3.852,3,1.736a1.077,1.077,0,0,1,.478.768ZM60.5,59.952a.925.925,0,0,1-.218.346.909.909,0,0,1-.344.218l-2.982.8-2.1.562a15.328,15.328,0,0,0,6.98-6.934L61.3,56.97ZM43.913,64.8h0a.946.946,0,0,1-.768-.2l-2.188-2.2-1.452-1.452a15.479,15.479,0,0,0,9.516,2.486l-2.13.57ZM35.505,36.094a.715.715,0,0,1,.212-.344.764.764,0,0,1,.35-.22l2.974-.8,1.886-.51A15.433,15.433,0,0,0,34.185,41l.518-1.922C35.041,37.8,35.4,36.458,35.505,36.094Zm17.354-4.676,2.18,2.182,1.44,1.438a15.457,15.457,0,0,0-9.39-2.482L49.1,32l2.988-.8A.941.941,0,0,1,52.859,31.418ZM60.6,52.332V54.9a.774.774,0,0,1-.332.57l-2.226,1.284-7.5,4.34-2.226,1.278a.591.591,0,0,1-.332.072.6.6,0,0,1-.33-.072L45.429,61.1l-7.51-4.34-2.2-1.3-.166.284-.07.126h0l.046-.082L35.7,55.5a.818.818,0,0,1-.332-.57V41.1a.813.813,0,0,1,.332-.576l2.226-1.286,7.53-4.332,2.226-1.284a.749.749,0,0,1,.332-.074.715.715,0,0,1,.33.074L50.565,34.9l7.478,4.306L60.269,40.5a.778.778,0,0,1,.332.576ZM58.4,38.66l-7.5-4.332-1.67-.96A14.664,14.664,0,0,1,58.4,37.612a14.906,14.906,0,0,1,1.68,2.02Zm-13.28-4.332L37.6,38.634l-1.66.958a14.867,14.867,0,0,1,1.614-1.944,14.668,14.668,0,0,1,9.246-4.28Zm-10.42,18v2.1a14.772,14.772,0,0,1,0-12.742Zm1,3.87,1.924,1.112,7.512,4.352,1.9,1.094A14.7,14.7,0,0,1,35.7,56.2Zm15.2,5.464,7.51-4.352,1.82-1.022a14.824,14.824,0,0,1-1.786,2.18l-.018.018a14.707,14.707,0,0,1-9.414,4.268Zm10.4-18V41.7a14.773,14.773,0,0,1,0,12.714Zm-26.26,12.83L33.6,55.044l-2.18-2.186a.932.932,0,0,1-.2-.768c.1-.364.458-1.708.8-2.98l.55-2.04A15.45,15.45,0,0,0,35.039,56.492ZM60.955,39.5l1.462,1.46,2.174,2.2a.946.946,0,0,1,.2.768c-.1.372-.456,1.71-.8,2.982l-.546,2.042A15.477,15.477,0,0,0,60.955,39.5Zm-27.02-.666L31.233,48.9c-.1.362-.2.722-.288,1.072V38.686a1.073,1.073,0,0,1,.454-.774l2.986-1.742.32-.184ZM30.945,57.32v-3.8l2.082,2.08L40.4,62.974l.78.778-6.8-3.922L31.4,58.106v-.012A1.083,1.083,0,0,1,30.945,57.32Zm31.128-.156,2.7-10.062c.094-.358.19-.714.284-1.06V57.32a1.088,1.088,0,0,1-.492.774l-3,1.736-.24.138C61.455,59.49,61.765,58.3,62.073,57.164ZM62.019,35.4,51.883,29.546l-2.262-1.308A19.715,19.715,0,0,1,64.313,36.71ZM44.087,29.546,33.921,35.4l-2.3,1.344a20.087,20.087,0,0,1,2.23-2.708,19.824,19.824,0,0,1,12.5-5.8Zm-14.036,24.3v2.9a19.95,19.95,0,0,1,0-17.33Zm3.87,6.752,10.166,5.856,2.572,1.482A19.828,19.828,0,0,1,31.411,59.15ZM65.947,42.14V39.522a19.951,19.951,0,0,1,0,17.13ZM38.4,28.366l2.98-2.966a1.333,1.333,0,0,1,1.048-.288L46.519,26.2l3.762,1A20.87,20.87,0,0,0,35.6,31.176ZM25.113,42.41a1.277,1.277,0,0,1,.286-1.03l2.964-2.98,2.814-2.8A20.869,20.869,0,0,0,27.2,50.214l-1-3.746C25.735,44.742,25.245,42.916,25.113,42.41Zm6.616,22.632a1.205,1.205,0,0,1-.47-.3,1.172,1.172,0,0,1-.3-.472c-.134-.5-.624-2.33-1.086-4.066l-1.014-3.784A20.816,20.816,0,0,0,33.2,62.8h0a20.837,20.837,0,0,0,6.4,4.348l-3.8-1.02Zm25.866,2.6-2.974,2.974a1.328,1.328,0,0,1-1.046.278L49.507,69.8l-3.774-1a20.879,20.879,0,0,0,14.7-4ZM70.611,54.626,67.637,57.6,64.8,60.434a20.885,20.885,0,0,0,4-14.684l1.01,3.758c.464,1.736.946,3.564,1.086,4.068a1.327,1.327,0,0,1-.284,1.046Z" fill="#fff"/>
</svg>
