<svg id="Layer_1" data-name="Layer 1" xmlns="http://www.w3.org/2000/svg" xmlns:xlink="http://www.w3.org/1999/xlink" width="96" height="96" viewBox="0 0 96 96">
  <defs>
    <linearGradient id="linear-gradient" x1="48" y1="-428" x2="48" y2="-332" gradientTransform="matrix(1, 0, 0, -1, 0, -332)" gradientUnits="userSpaceOnUse">
      <stop offset="0" stop-color="#005173"/>
      <stop offset="1" stop-color="#2accff"/>
    </linearGradient>
  </defs>
  <circle cx="48" cy="48" r="48" fill="url(#linear-gradient)"/>
  <g>
    <path d="M66.638,28.534A3.362,3.362,0,1,0,70,31.9h0a3.4,3.4,0,0,0-3.362-3.362M48,28.382A3.514,3.514,0,1,0,51.514,31.9h0A3.554,3.554,0,0,0,48,28.382m0,9.472a3.362,3.362,0,1,0,3.362,3.362h0A3.4,3.4,0,0,0,48,37.854m0,9.472a3.2,3.2,0,1,0,3.2,3.2,3.2,3.2,0,0,0-3.2-3.2m0,19.022a2.82,2.82,0,1,0,.012,0H48M29.362,28.534a3.362,3.362,0,0,0-.164,6.722h.164a3.4,3.4,0,0,0,3.36-3.36A3.342,3.342,0,0,0,29.4,28.534h-.038M48,56.8a2.984,2.984,0,0,0-2.98,2.98A3.034,3.034,0,0,0,48,62.756a2.98,2.98,0,0,0,.218-5.956c-.072,0-.145,0-.218,0" fill="#fff"/>
    <path d="M66.638,38.388a2.9,2.9,0,1,0,2.9,2.9h0a3,3,0,0,0-2.9-2.9m0,9.7a2.522,2.522,0,1,0,2.45,2.45,2.522,2.522,0,0,0-2.45-2.45m0,9.626a2.14,2.14,0,1,0,2.14,2.14v0a2.241,2.241,0,0,0-2.14-2.138M57.32,33.424a3.056,3.056,0,1,0,3.054,3.058v0a3.114,3.114,0,0,0-3.054-3.056m0,9.472a2.9,2.9,0,1,0,2.9,2.906v0a3,3,0,0,0-2.9-2.9m0,9.7a2.52,2.52,0,1,0,2.52,2.52,2.52,2.52,0,0,0-2.52-2.52m0,9.624a2.14,2.14,0,1,0,2.138,2.142v0a2.185,2.185,0,0,0-2.138-2.14m-18.64-28.8a3.056,3.056,0,1,0,3.056,3.056h0a3.063,3.063,0,0,0-3.056-3.056m0,9.472a2.9,2.9,0,1,0,2.9,2.9h0a2.9,2.9,0,0,0-2.9-2.9H38.68m0,9.7a2.52,2.52,0,0,0,0,5.04,2.477,2.477,0,0,0,2.446-2.509v-.011A2.432,2.432,0,0,0,38.782,52.6h-.1m0,9.624a2.14,2.14,0,1,0,2.14,2.14h0a2.188,2.188,0,0,0-2.14-2.14M29.362,38.388a2.9,2.9,0,1,0,2.9,2.906v0a2.9,2.9,0,0,0-2.9-2.9h0m0,9.7a2.522,2.522,0,1,0-.142,5.042c.047,0,.1,0,.142,0A2.478,2.478,0,0,0,31.8,50.615v0a2.388,2.388,0,0,0-2.249-2.519q-.1-.006-.195,0m0,9.626a2.139,2.139,0,1,0,.01,0h0" fill="#fff"/>
  </g>
</svg>
