<svg id="Layer_1" data-name="Layer 1" xmlns="http://www.w3.org/2000/svg" xmlns:xlink="http://www.w3.org/1999/xlink" width="96" height="96" viewBox="0 0 96 96">
  <defs>
    <linearGradient id="linear-gradient" x1="48" y1="-428" x2="48" y2="-332" gradientTransform="matrix(1, 0, 0, -1, 0, -332)" gradientUnits="userSpaceOnUse">
      <stop offset="0" stop-color="#005173"/>
      <stop offset="1" stop-color="#2accff"/>
    </linearGradient>
  </defs>
  <circle cx="48" cy="48" r="48" fill="url(#linear-gradient)"/>
  <g>
    <g id="g9031">
      <path id="path9033" d="M28.381,52.59l.028-.082.094-.256.092-.232.042-.106a25.206,25.206,0,0,1,1.693-3.4c.088-.19.182-.378.274-.566H27.731l.7-1.539a22.567,22.567,0,0,0,10.114-5.618h2.1l-2.571,5.5,4.134-.012-.758,1.639-4.12.014a39,39,0,0,0-2.6,6.63c-.508,3.087,0,5.4,2.757,6.254a11,11,0,0,0,6.134-.244,34.462,34.462,0,0,0,15.235-10.2c6.88-8,7.014-16.171.3-18.259-4.3-1.337-10.377.15-15.995,3.5,7-4.516,14.7-6.638,20.022-4.984a8.982,8.982,0,0,1,2.6,1.266A23.992,23.992,0,0,0,27.989,61.243a12.14,12.14,0,0,1,.4-8.653" fill="#fff"/>
    </g>
    <g id="g9035">
      <path id="path9037" d="M68.344,35.281c1.6,4.361-.4,10.865-5.944,17.305-8.32,9.675-21.461,15.525-29.349,13.07A8.93,8.93,0,0,1,30.5,64.4,23.992,23.992,0,0,0,68.344,35.273" fill="#fff"/>
    </g>
  </g>
</svg>
