<?xml version="1.0" encoding="utf-8"?>
<!-- Generator: Adobe Illustrator 23.0.2, SVG Export Plug-In . SVG Version: 6.00 Build 0)  -->
<svg version="1.1" id="Layer_1" xmlns="http://www.w3.org/2000/svg" xmlns:xlink="http://www.w3.org/1999/xlink" x="0px" y="0px"
	 viewBox="0 0 96 96" style="enable-background:new 0 0 96 96;" xml:space="preserve">
<style type="text/css">
	.st0{fill:url(#SVGID_1_);}
	.st1{fill:#FFFFFF;}
</style>
<linearGradient id="SVGID_1_" gradientUnits="userSpaceOnUse" x1="48" y1="96" x2="48" y2="-9.094947e-13">
	<stop  offset="0" style="stop-color:#005173"/>
	<stop  offset="1" style="stop-color:#2ACCFF"/>
</linearGradient>
<circle class="st0" cx="48" cy="48" r="48"/>
<g>
	<path class="st1" d="M40.2,29.8C30.1,29.8,22,38,22,48.1s8.2,18.2,18.3,18.2S58.5,58,58.4,47.9c0-10-8.1-18.1-18.2-18.2H40.2z
		 M40.2,59.3c-6.2-0.2-11-5.5-10.8-11.7c0.2-5.9,4.9-10.6,10.8-10.8c7.9,0,10.8,7,10.8,11.3c0.2,6-4.6,11-10.6,11.1L40.2,59.3
		L40.2,59.3z M62.6,65.6V37.2H57v-6.8h13v35.2L62.6,65.6L62.6,65.6z"/>
</g>
</svg>
