<svg id="Layer_1" data-name="Layer 1" xmlns="http://www.w3.org/2000/svg" xmlns:xlink="http://www.w3.org/1999/xlink" width="96" height="96" viewBox="0 0 96 96">
  <defs>
    <linearGradient id="linear-gradient" x1="48" y1="526" x2="48" y2="430" gradientTransform="translate(0 -430)" gradientUnits="userSpaceOnUse">
      <stop offset="0" stop-color="#005173"/>
      <stop offset="1" stop-color="#2accff"/>
    </linearGradient>
  </defs>
  <circle cx="48" cy="48" r="48" fill="url(#linear-gradient)"/>
  <g>
    <path d="M44.444,44.716l-2.074-5.8a.784.784,0,0,1-.064-.29.5.5,0,0,1,.518-.486.522.522,0,0,1,.52.42l1.716,5,1.718-5a.528.528,0,0,1,.518-.42h.066a.5.5,0,0,1,.518.42l1.72,5.022,1.75-5.024a.488.488,0,0,1,.486-.388.5.5,0,0,1,.518.486.973.973,0,0,1-.064.292l-2.108,5.8a.6.6,0,0,1-.55.454H49.6a.577.577,0,0,1-.552-.454l-1.716-4.926-1.718,4.926a.577.577,0,0,1-.552.454H45.03a.61.61,0,0,1-.584-.486" fill="#fff"/>
    <path d="M59.612,38.656a.518.518,0,0,1,1.036,0v1.166a2.825,2.825,0,0,1,2.366-1.684.51.51,0,0,1,.518.5v.016a.5.5,0,0,1-.454.518,2.817,2.817,0,0,0-2.43,3.144V44.65a.518.518,0,1,1-1.036,0h0v-6" fill="#fff"/>
    <path d="M66.8,45.234a3.366,3.366,0,0,1-3.374-3.358c0-.058,0-.116,0-.174V41.67a3.342,3.342,0,0,1,3.145-3.528l.095,0a3.188,3.188,0,0,1,3.119,3.256c0,.059,0,.119-.009.178a.47.47,0,0,1-.452.486H64.472a2.36,2.36,0,0,0,2.366,2.3,2.733,2.733,0,0,0,1.944-.778.4.4,0,0,1,.292-.13.436.436,0,0,1,.454.417v.005a.457.457,0,0,1-.162.324,3.384,3.384,0,0,1-2.56,1.036m2-3.92a2.217,2.217,0,0,0-2.127-2.3h-.011a2.288,2.288,0,0,0-2.172,2.3Z" fill="#fff"/>
    <path d="M52.352,43.128h0c0-1.458,1.2-2.236,2.916-2.236a7.667,7.667,0,0,1,2.108.292v-.228c0-1.23-.746-1.88-2.042-1.88a3.375,3.375,0,0,0-1.588.326.416.416,0,0,1-.2.032.462.462,0,0,1-.454-.454.4.4,0,0,1,.308-.422,4.635,4.635,0,0,1,2.074-.388,3.013,3.013,0,0,1,2.2.744,2.753,2.753,0,0,1,.714,2v3.8a.506.506,0,0,1-.486.518.476.476,0,0,1-.486-.466V44.1a3,3,0,0,1-2.464,1.166c-1.3-.032-2.6-.744-2.6-2.138m5.048-.55v-.648a6.61,6.61,0,0,0-2-.29c-1.3,0-2,.55-2,1.424V43.1c0,.874.8,1.36,1.716,1.36,1.264-.032,2.3-.778,2.3-1.88" fill="#fff"/>
    <path d="M25.876,38.6a.975.975,0,0,0-1.284-.5l-.012.006a.958.958,0,0,0-.5,1.258l.016.036,2.17,4.73c.358.746.714,1.134,1.4,1.134.714,0,1.038-.42,1.4-1.134,0,0,1.912-4.116,1.912-4.18a.275.275,0,0,1,.26-.162.29.29,0,0,1,.29.29v4.052a1.024,1.024,0,0,0,.908,1.128c.031,0,.061.005.092.006a1.049,1.049,0,0,0,1.04-1.056c0-.026,0-.052,0-.078v-3.3a1,1,0,0,1,.97-1.03c.031,0,.063,0,.094,0a.986.986,0,0,1,1.036.933.885.885,0,0,1,0,.1V44.14a1.024,1.024,0,0,0,.908,1.128c.031,0,.061.005.092.006a1.049,1.049,0,0,0,1.04-1.056c0-.026,0-.052,0-.078V40.826a1.054,1.054,0,0,1,2.106,0v3.306a1.024,1.024,0,0,0,.908,1.128c.031,0,.061.005.092.006a1.049,1.049,0,0,0,1.04-1.056c0-.026,0-.052,0-.078V40.374a2.36,2.36,0,0,0-2.353-2.367H39.4a3.139,3.139,0,0,0-2.172.94,2.428,2.428,0,0,0-2.106-.94,3.353,3.353,0,0,0-2.042.94,2.451,2.451,0,0,0-1.814-.94,2.222,2.222,0,0,0-2.2,1.49l-1.4,3.274L25.876,38.6" fill="#fff"/>
    <path d="M69.884,38.98h0a.859.859,0,0,1,.842-.842.838.838,0,0,1,.844.832v.01h0a.858.858,0,0,1-.844.842.8.8,0,0,1-.842-.756c0-.028,0-.057,0-.086m1.524,0h0a.664.664,0,0,0-.647-.68h-.035a.683.683,0,0,0-.68.68h0a.664.664,0,0,0,.648.68h.032a.648.648,0,0,0,.682-.612c0-.023,0-.045,0-.068" fill="#fff"/>
    <path d="M70.4,38.656a.086.086,0,0,1,.072-.1H70.8a.251.251,0,0,1,.226.1.27.27,0,0,1,.066.2h0a.291.291,0,0,1-.162.26l.128.162c.034.032.034.032.034.064a.086.086,0,0,1-.072.1.113.113,0,0,1-.026,0c-.032,0-.064-.032-.1-.032l-.162-.228H70.6v.2a.1.1,0,0,1-.2,0h0Zm.358.292c.1,0,.128-.034.128-.13h0a.139.139,0,0,0-.128-.13h-.2v.226h.2Z" fill="#fff"/>
    <path d="M30.822,49.222a.528.528,0,0,1,.531-.525h.025a.536.536,0,0,1,.584.484c0,.013,0,.026,0,.04v.154a.535.535,0,0,1-.545.526l-.041,0a.528.528,0,0,1-.555-.5v-.179Zm.092,2.47a.494.494,0,1,1,.988,0v5.68a.494.494,0,0,1-.988,0Z" fill="#fff"/>
    <path d="M33.044,51.692a.494.494,0,1,1,.988,0v1.234a2.745,2.745,0,0,1,2.254-1.76.487.487,0,0,1,.494.482v.012a.478.478,0,0,1-.432.494,2.684,2.684,0,0,0-2.316,3v2.224a.494.494,0,0,1-.988,0V51.692Z" fill="#fff"/>
    <path d="M39.342,57.464l-1.976-5.526a.76.76,0,0,1-.062-.278.482.482,0,0,1,.5-.462.494.494,0,0,1,.494.4l1.636,4.908,1.67-4.938a.5.5,0,0,1,.494-.4h.062a.472.472,0,0,1,.494.4l1.636,4.938,1.668-4.938a.464.464,0,0,1,.462-.37.482.482,0,0,1,.494.462.863.863,0,0,1-.062.278l-2,5.556a.576.576,0,0,1-.524.432h-.062a.552.552,0,0,1-.526-.432L42.1,52.71l-1.636,4.784a.55.55,0,0,1-.524.432H39.9A.578.578,0,0,1,39.342,57.464Z" fill="#fff"/>
    <path d="M54.22,56.074v-3.95H53.7a.465.465,0,0,1-.432-.432.439.439,0,0,1,.432-.432h.524V49.716a.494.494,0,0,1,.988,0V51.26h1.7a.432.432,0,0,1,0,.864H55.2v3.828c0,.8.432,1.08,1.11,1.08a2.39,2.39,0,0,0,.588-.094.442.442,0,0,1,.432.434.4.4,0,0,1-.278.37,2.333,2.333,0,0,1-.958.184,1.681,1.681,0,0,1-1.874-1.852Z" fill="#fff"/>
    <path d="M57.43,54.562h0A3.4,3.4,0,0,1,60.771,51.1H60.8a3.439,3.439,0,0,1,2.4.958.494.494,0,0,1,.154.34.453.453,0,0,1-.446.462h-.016a.465.465,0,0,1-.308-.124,2.479,2.479,0,0,0-1.8-.77,2.43,2.43,0,0,0-2.347,2.51v.082a2.442,2.442,0,0,0,2.35,2.531h.05a2.616,2.616,0,0,0,1.822-.8.4.4,0,0,1,.278-.122.442.442,0,0,1,.432.432.545.545,0,0,1-.124.308,3.283,3.283,0,0,1-2.47,1.05,3.36,3.36,0,0,1-3.346-3.374Z" fill="#fff"/>
    <path d="M64.222,49a.494.494,0,0,1,.988,0v3.4a2.47,2.47,0,0,1,2.252-1.266,2.384,2.384,0,0,1,2.509,2.252,2.312,2.312,0,0,1-.009.372V57.4a.494.494,0,1,1-.988,0h0V54a1.748,1.748,0,0,0-1.5-1.963,1.767,1.767,0,0,0-.317-.013,1.93,1.93,0,0,0-1.978,1.88c0,.053,0,.1,0,.158v3.3a.494.494,0,0,1-.988,0V49Z" fill="#fff"/>
    <path d="M24,55.952h0c0-1.4,1.142-2.13,2.778-2.13a7.234,7.234,0,0,1,2,.278v-.218c0-1.172-.71-1.79-1.944-1.79a3.223,3.223,0,0,0-1.512.31.4.4,0,0,1-.186.03A.441.441,0,0,1,24.71,52a.376.376,0,0,1,.278-.4,4.43,4.43,0,0,1,1.976-.37,2.876,2.876,0,0,1,2.1.71,2.62,2.62,0,0,1,.68,1.914v3.612a.482.482,0,0,1-.464.494.454.454,0,0,1-.462-.446v-.634A2.866,2.866,0,0,1,26.47,58c-1.236-.04-2.47-.72-2.47-2.046m4.816-.526V54.81a6.238,6.238,0,0,0-1.914-.278c-1.236,0-1.914.524-1.914,1.358v.03c0,.834.772,1.3,1.636,1.3a2.015,2.015,0,0,0,2.2-1.8" fill="#fff"/>
    <path d="M46.9,55.952h0c0-1.4,1.142-2.13,2.778-2.13a7.234,7.234,0,0,1,2,.278v-.218c0-1.172-.71-1.79-1.944-1.79a3.223,3.223,0,0,0-1.512.31.4.4,0,0,1-.186.03A.441.441,0,0,1,47.614,52a.376.376,0,0,1,.278-.4,4.43,4.43,0,0,1,1.976-.37,2.876,2.876,0,0,1,2.1.71,2.62,2.62,0,0,1,.68,1.914v3.612a.482.482,0,0,1-.464.494.454.454,0,0,1-.462-.446v-.634A2.866,2.866,0,0,1,49.374,58c-1.236-.03-2.47-.71-2.47-2.036m4.816-.526V54.82a6.238,6.238,0,0,0-1.914-.278c-1.234,0-1.914.524-1.914,1.358v.03c0,.834.772,1.3,1.636,1.3a2.015,2.015,0,0,0,2.2-1.8" fill="#fff"/>
    <path d="M70.4,52h0a.818.818,0,0,1,.8-.8.8.8,0,0,1,.8.8h0a.816.816,0,0,1-.8.8.76.76,0,0,1-.8-.718c0-.027,0-.055,0-.082m1.452,0h0a.634.634,0,0,0-.62-.648H71.2a.65.65,0,0,0-.648.648h0a.632.632,0,0,0,.616.648H71.2a.615.615,0,0,0,.642-.589.58.58,0,0,0,0-.059" fill="#fff"/>
    <path d="M70.888,51.692a.084.084,0,0,1,.073-.094h.3a.241.241,0,0,1,.216.094.261.261,0,0,1,.06.184h0a.273.273,0,0,1-.154.248l.124.154c.03.03.03.03.03.062a.08.08,0,0,1-.066.092h-.026c-.03,0-.062-.03-.092-.03l-.154-.216h-.124v.184a.082.082,0,0,1-.068.094.1.1,0,0,1-.024,0,.084.084,0,0,1-.094-.073.074.074,0,0,1,0-.021Zm.34.278c.092,0,.124-.032.124-.124h0a.135.135,0,0,0-.124-.124h-.184v.216h.184Z" fill="#fff"/>
  </g>
</svg>
