<svg id="Layer_1" data-name="Layer 1" xmlns="http://www.w3.org/2000/svg" xmlns:xlink="http://www.w3.org/1999/xlink" width="96" height="96" viewBox="0 0 96 96">
  <defs>
    <linearGradient id="linear-gradient" x1="48" y1="74" x2="48" y2="170" gradientTransform="matrix(1, 0, 0, -1, 0, 170)" gradientUnits="userSpaceOnUse">
      <stop offset="0" stop-color="#005173"/>
      <stop offset="1" stop-color="#2accff"/>
    </linearGradient>
  </defs>
  <title>vuls</title>
  <circle cx="48" cy="48" r="48" fill="url(#linear-gradient)"/>
  <g>
    <path d="M47.808,42.963a5.018,5.018,0,1,0,5.018,5.018A5.018,5.018,0,0,0,47.808,42.963Zm0,7.595a2.577,2.577,0,1,1,2.577-2.577A2.58,2.58,0,0,1,47.808,50.558Z" fill="#fff"/>
    <path d="M47.808,48.8a.814.814,0,1,1,.814-.814A.815.815,0,0,1,47.808,48.8Z" fill="#fff"/>
    <path d="M51.9,55.4A45.842,45.842,0,0,1,37.7,64.28a18.661,18.661,0,0,1-10.51,1.054C35.8,70.937,46.432,72,46.432,72s5.8-5.868,7.72-9.383c1.783-3.257,3.926-7.155,3.778-15.987A23.644,23.644,0,0,1,51.9,55.4Z" fill="#fff"/>
    <path d="M38.246,59.718a26.742,26.742,0,0,1-7.226.47A18.322,18.322,0,0,1,26.289,58.9a56.724,56.724,0,0,0,5.87,5.906,19.737,19.737,0,0,0,5.226-1.282,44.884,44.884,0,0,0,13.538-8.354A48.567,48.567,0,0,1,38.246,59.718Z" fill="#fff"/>
    <g>
      <path d="M39.805,55.493a33.842,33.842,0,0,1-9.28-3.364c-2.2-1.339-3.346-2.129-3.918-2.549a23.5,23.5,0,0,0,2.937,5.77,26.489,26.489,0,0,0,3.862,4.093,30.8,30.8,0,0,0,4.7-.525,49.935,49.935,0,0,0,10.477-3.451A23.3,23.3,0,0,1,39.805,55.493Z" fill="#fff"/>
      <polygon points="69.71 46.936 69.711 46.936 69.71 46.936 69.71 46.936" fill="#fff"/>
    </g>
    <g>
      <path d="M46.682,41.168l-.021.007.066-.014Z" fill="#fff"/>
      <path d="M41.852,53.977a17.65,17.65,0,0,0,4.609,1.007,7.343,7.343,0,0,0,.741.036,9.317,9.317,0,0,1-1.928-.311,15.787,15.787,0,0,1-4.949-2.241,16.874,16.874,0,0,1-2.669-2.749,21.417,21.417,0,0,1-2.905-5.135l1.358,6.427A27.664,27.664,0,0,0,41.852,53.977Z" fill="#fff"/>
    </g>
    <path d="M54.481,41.223a28.374,28.374,0,0,1,6.3,3.246,53.31,53.31,0,0,1,4.689,3.756L62.713,43.24a39.083,39.083,0,0,0-6.652-2,21.277,21.277,0,0,0-2.606-.3A6.974,6.974,0,0,1,54.481,41.223Z" fill="#fff"/>
    <path d="M44.13,40.647A45.839,45.839,0,0,1,58.249,31.64a18.663,18.663,0,0,1,10.5-1.149C60.084,24.966,49.442,24,49.442,24s-5.742,5.921-7.635,9.453c-1.753,3.273-3.86,7.19-3.631,16.02A23.625,23.625,0,0,1,44.13,40.647Z" fill="#fff"/>
    <path d="M57.739,36.207a26.792,26.792,0,0,1,7.222-.536A18.3,18.3,0,0,1,69.7,36.912,56.6,56.6,0,0,0,63.78,31.06a19.711,19.711,0,0,0-5.214,1.329,44.919,44.919,0,0,0-13.461,8.477A48.522,48.522,0,0,1,57.739,36.207Z" fill="#fff"/>
    <path d="M56.219,40.446a33.872,33.872,0,0,1,9.31,3.279c2.21,1.319,3.365,2.1,3.941,2.514a23.452,23.452,0,0,0-2.989-5.744,26.485,26.485,0,0,0-3.9-4.057,30.818,30.818,0,0,0-4.691.568,49.9,49.9,0,0,0-10.445,3.546A23.27,23.27,0,0,1,56.219,40.446Z" fill="#fff"/>
    <path d="M54.186,41.981a17.65,17.65,0,0,0-4.618-.965,7.4,7.4,0,0,0-.741-.03,9.311,9.311,0,0,1,1.93.294,15.783,15.783,0,0,1,4.969,2.2,16.916,16.916,0,0,1,2.7,2.725,21.45,21.45,0,0,1,2.951,5.109l-1.416-6.415A27.722,27.722,0,0,0,54.186,41.981Z" fill="#fff"/>
    <path d="M54.481,41.223a28.374,28.374,0,0,1,6.3,3.246,53.31,53.31,0,0,1,4.689,3.756L62.713,43.24a39.083,39.083,0,0,0-6.652-2,21.277,21.277,0,0,0-2.606-.3A6.974,6.974,0,0,1,54.481,41.223Z" fill="#fff"/>
    <path d="M51.9,55.4A45.842,45.842,0,0,1,37.7,64.28a18.661,18.661,0,0,1-10.51,1.054C35.8,70.937,46.432,72,46.432,72s5.8-5.868,7.72-9.383c1.783-3.257,3.926-7.155,3.778-15.987A23.644,23.644,0,0,1,51.9,55.4Z" fill="#fff"/>
    <path d="M38.246,59.718a26.742,26.742,0,0,1-7.226.47A18.322,18.322,0,0,1,26.289,58.9a56.724,56.724,0,0,0,5.87,5.906,19.737,19.737,0,0,0,5.226-1.282,44.884,44.884,0,0,0,13.538-8.354A48.567,48.567,0,0,1,38.246,59.718Z" fill="#fff"/>
    <path d="M39.805,55.493a33.842,33.842,0,0,1-9.28-3.364c-2.2-1.339-3.346-2.129-3.918-2.549a23.5,23.5,0,0,0,2.937,5.77,26.489,26.489,0,0,0,3.862,4.093,30.8,30.8,0,0,0,4.7-.525,49.935,49.935,0,0,0,10.477-3.451A23.3,23.3,0,0,1,39.805,55.493Z" fill="#fff"/>
    <path d="M41.852,53.977a17.65,17.65,0,0,0,4.609,1.007,7.343,7.343,0,0,0,.741.036,9.317,9.317,0,0,1-1.928-.311,15.787,15.787,0,0,1-4.949-2.241,16.874,16.874,0,0,1-2.669-2.749,21.417,21.417,0,0,1-2.905-5.135l1.358,6.427A27.664,27.664,0,0,0,41.852,53.977Z" fill="#fff"/>
    <path d="M51.9,55.4A45.842,45.842,0,0,1,37.7,64.28a18.661,18.661,0,0,1-10.51,1.054C35.8,70.937,46.432,72,46.432,72s5.8-5.868,7.72-9.383c1.783-3.257,3.926-7.155,3.778-15.987A23.644,23.644,0,0,1,51.9,55.4Z" fill="#fff"/>
    <path d="M38.246,59.718a26.742,26.742,0,0,1-7.226.47A18.322,18.322,0,0,1,26.289,58.9a56.724,56.724,0,0,0,5.87,5.906,19.737,19.737,0,0,0,5.226-1.282,44.884,44.884,0,0,0,13.538-8.354A48.567,48.567,0,0,1,38.246,59.718Z" fill="#fff"/>
    <path d="M39.805,55.493a33.842,33.842,0,0,1-9.28-3.364c-2.2-1.339-3.346-2.129-3.918-2.549a23.5,23.5,0,0,0,2.937,5.77,26.489,26.489,0,0,0,3.862,4.093,30.8,30.8,0,0,0,4.7-.525,49.935,49.935,0,0,0,10.477-3.451A23.3,23.3,0,0,1,39.805,55.493Z" fill="#fff"/>
    <path d="M41.852,53.977a17.65,17.65,0,0,0,4.609,1.007,7.343,7.343,0,0,0,.741.036,9.317,9.317,0,0,1-1.928-.311,15.787,15.787,0,0,1-4.949-2.241,16.874,16.874,0,0,1-2.669-2.749,21.417,21.417,0,0,1-2.905-5.135l1.358,6.427A27.664,27.664,0,0,0,41.852,53.977Z" fill="#fff"/>
    <path d="M41.55,54.732a28.344,28.344,0,0,1-6.271-3.3,53.213,53.213,0,0,1-4.655-3.8l2.713,5.009A39.3,39.3,0,0,0,39.97,54.7a21.452,21.452,0,0,0,2.6.325A6.942,6.942,0,0,1,41.55,54.732Z" fill="#fff"/>
    <polygon points="66.33 49.776 66.33 49.776 66.33 49.776 66.33 49.776" fill="#fff"/>
  </g>
</svg>
