<?xml version="1.0" encoding="utf-8"?>
<!-- Generator: Adobe Illustrator 23.0.2, SVG Export Plug-In . SVG Version: 6.00 Build 0)  -->
<svg version="1.1" id="Layer_1" xmlns="http://www.w3.org/2000/svg" xmlns:xlink="http://www.w3.org/1999/xlink" x="0px" y="0px"
	 viewBox="0 0 96 96" style="enable-background:new 0 0 96 96;" xml:space="preserve">
<style type="text/css">
	.st0{fill:url(#SVGID_1_);}
	.st1{fill:#FFFFFF;}
</style>
<linearGradient id="SVGID_1_" gradientUnits="userSpaceOnUse" x1="48" y1="96" x2="48" y2="-9.094947e-13">
	<stop  offset="0" style="stop-color:#005173"/>
	<stop  offset="1" style="stop-color:#2ACCFF"/>
</linearGradient>
<circle class="st0" cx="48" cy="48" r="48"/>
<path class="st1" d="M71.7,55c0,0,0.4,0.1,0.3,0.4c0,0.3-0.4,0-0.4,0c-7.3-2.9-14.9-4.9-22.7-5.8c-7.8-1.1-15.7-1.2-23.5-0.3
	c-2,0.2-1.2-0.1-1.2-0.1c8-1.4,16.2-1.8,24.3-1.2c7,0.9,13.8,2.8,20.2,5.7C69.5,54,70.6,54.5,71.7,55 M60.1,45.9
	c-0.8-2.3-1.8-4.6-3.6-5.2c-1.9-0.7-6.2,1-10.1,1.6c-2.7,0.4-4.9,0.6-5.7,0.6c-0.8,0.1-1.5,0.6-1.5,1.2s1.2,2.8,1.1,2
	c-0.2-0.9-0.3-2.2,0.6-2.5c0.3-0.1,3.3-0.4,6-0.8c2.1-0.3,4.1-0.7,4.1-0.7c1.5-0.3,3-0.4,4.5-0.2c0.6,0.2,1.2,0.5,1.8,0.9
	c1.4,1,4,7.1,4,7.1C61,48.5,60.6,47.1,60.1,45.9"/>
</svg>
