<svg
  width="200"
  xmlns="http://www.w3.org/2000/svg"
  viewBox="0 0 714.81 158.133">
  <defs>
    <linearGradient
      id="linear-gradient"
      x1="23.158"
      y1="134.975"
      x2="134.975"
      y2="23.158"
      gradientUnits="userSpaceOnUse"
    >
      <stop offset="0" stop-color="#00062a" />
      <stop offset="0.5" stop-color="#2accff" />
      <stop offset="1" stop-color="#d8ec13" />
    </linearGradient>
  </defs>
  <path
    fill="url(#linear-gradient)"
    d="M78.753,9.13a2.365,2.365,0,1,0-2.365-2.365A2.364,2.364,0,0,0,78.753,9.13ZM71.3,2.453a1.217,1.217,0,1,0-1.217-1.217A1.217,1.217,0,0,0,71.3,2.453Zm-6.187,8.082a2.365,2.365,0,1,0-2.781-1.858A2.366,2.366,0,0,0,65.116,10.535ZM56.506,5.44a1.217,1.217,0,1,0-1.431-.956A1.217,1.217,0,0,0,56.506,5.44Zm-4.492,9.134a2.365,2.365,0,1,0-3.09-1.28A2.365,2.365,0,0,0,52.014,14.574Zm-9.439-3.318a1.217,1.217,0,1,0-1.59-.659A1.217,1.217,0,0,0,42.575,11.256Zm-2.623,9.835a2.365,2.365,0,1,0-3.281-.653A2.365,2.365,0,0,0,39.952,21.091Zm-9.9-1.413a1.217,1.217,0,1,0-1.687-.336A1.217,1.217,0,0,0,30.047,19.678Zm-.654,10.158a2.365,2.365,0,1,0-3.345,0A2.367,2.367,0,0,0,29.393,29.836Zm-9.99.546a1.217,1.217,0,1,0-1.721,0A1.217,1.217,0,0,0,19.4,30.382ZM17.462,41.125a2.365,2.365,0,1,0-.652-3.28A2.366,2.366,0,0,0,17.462,41.125Zm-6.411,1.832a1.217,1.217,0,1,0-1.687.336A1.215,1.215,0,0,0,11.051,42.957ZM9.964,50.782a2.365,2.365,0,1,0,3.09-1.279A2.365,2.365,0,0,0,9.964,50.782Zm-6.24,6.8a1.217,1.217,0,1,0-.658-1.59A1.217,1.217,0,0,0,3.724,57.579ZM7.632,67.588a2.365,2.365,0,1,0-1.858-2.781A2.365,2.365,0,0,0,7.632,67.588ZM.98,72.69a1.217,1.217,0,1,0-.956-1.431A1.218,1.218,0,0,0,.98,72.69ZM4.4,79.38a2.365,2.365,0,1,0,2.365-2.365A2.365,2.365,0,0,0,4.4,79.38ZM1.236,85.613A1.217,1.217,0,1,0,2.453,86.83,1.217,1.217,0,0,0,1.236,85.613Zm9.3,7.405A2.365,2.365,0,1,0,8.677,95.8,2.365,2.365,0,0,0,10.535,93.018Zm-6.526,7.653a1.217,1.217,0,1,0,1.43.956A1.216,1.216,0,0,0,4.009,100.671Zm7.475,4.168a2.365,2.365,0,1,0,3.09,1.28A2.366,2.366,0,0,0,11.484,104.839ZM9.666,114.9a1.217,1.217,0,1,0,1.59.659A1.217,1.217,0,0,0,9.666,114.9Zm8.144,2.63a2.365,2.365,0,1,0,3.281.652A2.364,2.364,0,0,0,17.81,117.529Zm.18,10.221a1.217,1.217,0,1,0,1.688.336A1.217,1.217,0,0,0,17.99,127.75Zm11.846.99a2.365,2.365,0,1,0,0,3.345A2.367,2.367,0,0,0,29.836,128.74Zm-1.175,9.99a1.217,1.217,0,1,0,1.721,0A1.217,1.217,0,0,0,28.661,138.73Zm11.811-1.34a2.365,2.365,0,1,0,.653,3.281A2.365,2.365,0,0,0,40.472,137.39Zm.8,10.027a1.217,1.217,0,1,0,1.687-.335A1.217,1.217,0,0,0,41.27,147.417ZM52.593,143.8a2.365,2.365,0,1,0,1.279,3.09A2.364,2.364,0,0,0,52.593,143.8Zm4.327,9.02a1.217,1.217,0,1,0,.659,1.59A1.217,1.217,0,0,0,56.92,152.819Zm8.81-5.1a2.365,2.365,0,1,0,1.858,2.781A2.366,2.366,0,0,0,65.73,147.72Zm6,8a1.217,1.217,0,1,0,.956,1.431A1.216,1.216,0,0,0,71.734,155.723ZM79.38,149a2.365,2.365,0,1,0,2.365,2.365A2.365,2.365,0,0,0,79.38,149Zm7.45,6.677a1.217,1.217,0,1,0,1.217,1.217A1.217,1.217,0,0,0,86.83,155.68Zm6.188-8.082a2.365,2.365,0,1,0,2.781,1.858A2.365,2.365,0,0,0,93.018,147.6Zm8.61,5.1a1.217,1.217,0,1,0,1.43.956A1.216,1.216,0,0,0,101.628,152.694Zm4.491-9.135a2.366,2.366,0,1,0,3.09,1.281A2.365,2.365,0,0,0,106.119,143.559Zm9.439,3.318a1.217,1.217,0,1,0,1.59.659A1.217,1.217,0,0,0,115.558,146.877Zm2.623-9.835a2.365,2.365,0,1,0,3.281.653A2.365,2.365,0,0,0,118.181,137.042Zm9.905,1.414a1.217,1.217,0,1,0,1.688.335A1.216,1.216,0,0,0,128.086,138.456Zm.654-10.158a2.365,2.365,0,1,0,3.345,0A2.365,2.365,0,0,0,128.74,128.3Zm9.99-.547a1.217,1.217,0,1,0,1.721,0A1.217,1.217,0,0,0,138.73,127.751Zm1.941-10.743a2.365,2.365,0,1,0,.652,3.28A2.366,2.366,0,0,0,140.671,117.008Zm6.411-1.832a1.217,1.217,0,1,0,1.687-.336A1.217,1.217,0,0,0,147.082,115.176Zm1.087-7.825a2.365,2.365,0,1,0-3.09,1.28A2.365,2.365,0,0,0,148.169,107.351Zm6.24-6.8a1.217,1.217,0,1,0,.659,1.589A1.216,1.216,0,0,0,154.409,100.555ZM150.5,90.545a2.365,2.365,0,1,0,1.858,2.781A2.365,2.365,0,0,0,150.5,90.545Zm6.653-5.1a1.217,1.217,0,1,0,.956,1.431A1.217,1.217,0,0,0,157.154,85.443ZM149,78.753a2.365,2.365,0,1,0,2.365-2.365A2.365,2.365,0,0,0,149,78.753ZM156.9,72.52A1.217,1.217,0,1,0,155.68,71.3,1.217,1.217,0,0,0,156.9,72.52Zm-9.3-7.4a2.365,2.365,0,1,0,1.858-2.781A2.366,2.366,0,0,0,147.6,65.116Zm6.526-7.654a1.217,1.217,0,1,0-1.43-.956A1.217,1.217,0,0,0,154.124,57.462Zm-7.475-4.168a2.365,2.365,0,1,0-3.09-1.28A2.366,2.366,0,0,0,146.649,53.294Zm1.818-10.06a1.217,1.217,0,1,0-1.59-.659A1.217,1.217,0,0,0,148.467,43.234Zm-8.144-2.63a2.365,2.365,0,1,0-3.28-.652A2.364,2.364,0,0,0,140.323,40.6Zm-.179-10.221a1.217,1.217,0,1,0-1.688-.336A1.218,1.218,0,0,0,140.144,30.383Zm-11.846-.99a2.365,2.365,0,1,0,0-3.345A2.365,2.365,0,0,0,128.3,29.393Zm1.174-9.99a1.217,1.217,0,1,0-1.721,0A1.217,1.217,0,0,0,129.472,19.4Zm-11.811,1.34a2.365,2.365,0,1,0-.653-3.281A2.365,2.365,0,0,0,117.661,20.743Zm-.8-10.027a1.217,1.217,0,1,0-1.688.335A1.217,1.217,0,0,0,116.864,10.716Zm-11.323,3.618a2.365,2.365,0,1,0-1.28-3.09A2.365,2.365,0,0,0,105.541,14.334Zm-4.328-9.02a1.217,1.217,0,1,0-.658-1.59A1.217,1.217,0,0,0,101.213,5.314ZM84.931,19.8A3.729,3.729,0,1,0,81.2,16.07,3.729,3.729,0,0,0,84.931,19.8Zm-11.675,0a3.729,3.729,0,1,0-4.384-2.93A3.729,3.729,0,0,0,73.256,19.794Zm-16.324.254a3.729,3.729,0,1,0,2.019-4.872A3.728,3.728,0,0,0,56.932,20.048Zm-5.916,6.481A3.729,3.729,0,1,0,45.844,25.5,3.729,3.729,0,0,0,51.016,26.529Zm-9.71,6.482a3.729,3.729,0,1,0-5.274,0A3.73,3.73,0,0,0,41.306,33.011ZM26.845,37.12a3.729,3.729,0,1,0,5.172-1.029A3.728,3.728,0,0,0,26.845,37.12Zm-7.18,10.994A3.729,3.729,0,1,0,24.537,46.1,3.729,3.729,0,0,0,19.665,48.114ZM17.7,64.682A3.729,3.729,0,1,0,14.768,60.3,3.729,3.729,0,0,0,17.7,64.682Zm2.1,8.52a3.729,3.729,0,1,0-3.729,3.729A3.728,3.728,0,0,0,19.8,73.2Zm-2.935,16.06a3.729,3.729,0,1,0-4.385-2.93A3.729,3.729,0,0,0,16.864,89.262ZM20.048,101.2a3.729,3.729,0,1,0-4.872-2.018A3.728,3.728,0,0,0,20.048,101.2Zm6.481,5.916A3.729,3.729,0,1,0,25.5,112.29,3.729,3.729,0,0,0,26.529,107.117Zm1.208,9.711a3.729,3.729,0,1,0,5.274,0A3.729,3.729,0,0,0,27.737,116.828ZM42.292,130.26a3.729,3.729,0,1,0-5.172,1.028A3.73,3.73,0,0,0,42.292,130.26Zm10.694,6.19a3.729,3.729,0,1,0-4.872,2.018A3.729,3.729,0,0,0,52.986,136.45Zm11.7,3.986a3.729,3.729,0,1,0-4.385,2.93A3.729,3.729,0,0,0,64.682,140.436Zm8.52-2.1a3.729,3.729,0,1,0,3.729,3.729A3.729,3.729,0,0,0,73.2,138.334Zm11.675,0a3.729,3.729,0,1,0,4.385,2.93A3.729,3.729,0,0,0,84.877,138.339Zm16.324-.254a3.729,3.729,0,1,0-2.018,4.872A3.728,3.728,0,0,0,101.2,138.085Zm5.916-6.481a3.729,3.729,0,1,0,5.173,1.029A3.729,3.729,0,0,0,107.117,131.6Zm9.711-6.482a3.729,3.729,0,1,0,5.273,0A3.728,3.728,0,0,0,116.828,125.122Zm14.46-4.108a3.729,3.729,0,1,0-5.172,1.028A3.728,3.728,0,0,0,131.288,121.014Zm7.18-10.994a3.729,3.729,0,1,0-4.872,2.018A3.729,3.729,0,0,0,138.468,110.02Zm1.968-16.568a3.729,3.729,0,1,0,2.93,4.384A3.728,3.728,0,0,0,140.436,93.452Zm1.627-4.791a3.73,3.73,0,1,0-3.729-3.73A3.729,3.729,0,0,0,142.063,88.661Zm.661-12.475a3.729,3.729,0,1,0-4.385-2.93A3.729,3.729,0,0,0,142.724,76.186Zm-4.639-19.254a3.729,3.729,0,1,0,4.872,2.019A3.729,3.729,0,0,0,138.085,56.932ZM131.6,51.016a3.729,3.729,0,1,0,1.029-5.172A3.729,3.729,0,0,0,131.6,51.016ZM130.4,41.305a3.729,3.729,0,1,0-5.274,0A3.729,3.729,0,0,0,130.4,41.305ZM115.842,27.874a3.729,3.729,0,1,0,5.172-1.029A3.728,3.728,0,0,0,115.842,27.874Zm-10.695-6.191a3.729,3.729,0,1,0,4.873-2.018A3.73,3.73,0,0,0,105.147,21.683ZM93.452,17.7a3.729,3.729,0,1,0,4.384-2.929A3.728,3.728,0,0,0,93.452,17.7ZM78.873,30.365a4.163,4.163,0,0,0-.431-8.3,4.045,4.045,0,0,0-.438.024,4.163,4.163,0,0,0,.431,8.3A4.045,4.045,0,0,0,78.873,30.365ZM64.165,28.6a4.163,4.163,0,1,0,2.742-5.212A4.145,4.145,0,0,0,64.165,28.6Zm-5.9,6.053a4.164,4.164,0,1,0-3.661-2.177A4.164,4.164,0,0,0,58.267,34.651Zm-9.078,4.992a4.165,4.165,0,1,0-3.2-1.5A4.171,4.171,0,0,0,49.189,39.643Zm-11.167-.117a4.163,4.163,0,0,0,.616,5.856,4.164,4.164,0,0,0,5.855-.616,4.164,4.164,0,0,0-.615-5.856,4.165,4.165,0,0,0-5.856.616ZM31.1,48.293a4.165,4.165,0,1,0,3.688-2.225A4.169,4.169,0,0,0,31.1,48.293ZM28.824,63.417a4.164,4.164,0,1,0-2.809-5.174,4.162,4.162,0,0,0,2.809,5.174Zm-5.852,5.576a4.164,4.164,0,0,0,3.764,4.527c.13.012.259.017.387.017a4.164,4.164,0,0,0,.375-8.31c-.128-.011-.257-.017-.384-.017A4.14,4.14,0,0,0,22.972,68.993ZM22.084,80.13a4.154,4.154,0,0,0,4.138,3.729,4.092,4.092,0,0,0,.439-.024,4.163,4.163,0,0,0-.431-8.3,4.068,4.068,0,0,0-.44.024,4.161,4.161,0,0,0-3.706,4.575Zm5.278,14.026a4.165,4.165,0,1,0-3.975-2.93A4.159,4.159,0,0,0,27.362,94.156Zm3.129,9.876a4.164,4.164,0,1,0-3.663-2.177A4.169,4.169,0,0,0,30.491,104.032Zm4.99,9.078a4.165,4.165,0,1,0-3.2-1.5A4.165,4.165,0,0,0,35.481,113.11Zm9.285.53a4.163,4.163,0,1,0,.616,5.855A4.176,4.176,0,0,0,44.766,113.64Zm7.4,6.027a4.163,4.163,0,0,0-5.623,1.746,4.164,4.164,0,0,0,1.746,5.624,4.163,4.163,0,0,0,5.623-1.746,4.164,4.164,0,0,0-1.746-5.624Zm8.438,4.468a4.163,4.163,0,1,0-1.182,8.156,4.191,4.191,0,0,0,3.992-2.982,4.163,4.163,0,0,0-2.81-5.174ZM73.519,131.4a4.169,4.169,0,0,0-3.765-4.527c-.128-.012-.256-.018-.383-.018a4.164,4.164,0,0,0-.378,8.311q.194.018.384.018A4.141,4.141,0,0,0,73.519,131.4Zm6.173,4.676a4.074,4.074,0,0,0,.439-.023,4.163,4.163,0,0,0-.431-8.3,4.338,4.338,0,0,0-.44.023,4.163,4.163,0,0,0,.432,8.3Zm14.276-6.536a4.165,4.165,0,1,0-2.741,5.211A4.144,4.144,0,0,0,93.968,129.536Zm5.9-6.054a4.163,4.163,0,1,0,3.662,2.177A4.167,4.167,0,0,0,99.866,123.482Zm9.079-4.992a4.165,4.165,0,1,0,3.2,1.5A4.172,4.172,0,0,0,108.945,118.49Zm11.166.118a4.164,4.164,0,1,0-3.238,1.543A4.17,4.17,0,0,0,120.111,118.608Zm6.925-8.768a4.162,4.162,0,0,0-1.746-5.623,4.163,4.163,0,0,0-5.623,1.746,4.163,4.163,0,1,0,7.369,3.877Zm-.092-7.14a4.164,4.164,0,1,0-2.81-5.174A4.173,4.173,0,0,0,126.944,102.7Zm8.218-13.56a4.17,4.17,0,0,0-3.766-4.527c-.129-.012-.256-.018-.383-.018a4.164,4.164,0,0,0-.379,8.31c.13.012.258.018.386.018A4.143,4.143,0,0,0,135.162,89.14ZM136.049,78a4.152,4.152,0,0,0-4.136-3.729,4.079,4.079,0,0,0-.44.023,4.163,4.163,0,0,0,.432,8.3,4.074,4.074,0,0,0,.439-.023A4.168,4.168,0,0,0,136.049,78Zm-6.514-13.839a4.162,4.162,0,1,0,1.236-.188A4.14,4.14,0,0,0,129.535,64.165Zm-1.887-1.736a4.165,4.165,0,1,0-1.989-7.823,4.164,4.164,0,0,0,1.989,7.823ZM126.8,49.567a4.165,4.165,0,1,0-1.484,2.821A4.133,4.133,0,0,0,126.8,49.567Zm-14.953-7.874a4.133,4.133,0,0,0,1.52,2.8,4.164,4.164,0,1,0-.615-5.857A4.134,4.134,0,0,0,111.847,41.693Zm-5.884-3.226a4.165,4.165,0,0,0,5.623-1.747A4.163,4.163,0,0,0,109.84,31.1a4.164,4.164,0,0,0-3.877,7.371ZM99.891,26.015a4.158,4.158,0,0,0-5.175,2.809A4.164,4.164,0,0,0,97.525,34a4.164,4.164,0,0,0,2.366-7.984Zm-15.278.722a4.164,4.164,0,0,0,3.765,4.527c.13.012.258.017.386.017a4.164,4.164,0,0,0,.376-8.31c-.129-.011-.256-.017-.384-.017A4.143,4.143,0,0,0,84.613,26.737ZM92.4,10.413a2.365,2.365,0,1,0-1.859-2.781A2.364,2.364,0,0,0,92.4,10.413Zm-6-8A1.217,1.217,0,1,0,85.443.98,1.217,1.217,0,0,0,86.4,2.411Z"
  />
  <path d="M218.919,85.639c0,9.319-4.259,13.844-12.912,13.844a13.577,13.577,0,0,1-6.456-1.331V90.964a11.85,11.85,0,0,0,5.325,1.265c3.661,0,5.658-2,5.658-5.791V50.7h8.385Z" />
  <path d="M281.416,81.513c0,11.049-7.189,17.97-19.3,17.97-12.048,0-19.236-6.921-19.236-17.97V50.7h8.32V80.78c0,6.923,4.06,10.983,10.916,10.983,6.922,0,10.915-4.06,10.915-10.983V50.7h8.387Z" />
  <path d="M313.758,81.113v17.5h-8.386V50.7h15.175c10.65,0,17.372,5.458,17.372,15.242,0,9.717-6.722,15.175-17.372,15.175Zm0-23.362V74.058h7.189c5.191,0,8.519-2.862,8.519-8.12,0-5.325-3.461-8.187-8.852-8.187Z" />
  <path d="M358.748,98.618V50.7h8.386V98.618Z" />
  <path d="M409.2,57.751V98.618h-8.387V57.751H386.833V50.7h36.34v7.055Z" />
  <path d="M442.871,98.618V50.7h30.151v7.055H451.257V70.93h18.437v6.855H451.257V91.563h22.764v7.055Z" />
  <path d="M511.622,50.7c10.849,0,17.7,5.458,17.7,15.242a13.8,13.8,0,0,1-9.451,13.511l10.449,19.169h-8.986l-9.184-17.771H503.7V98.618h-8.254V50.7Zm-7.92,7.055V74.058h8.385c5.392,0,8.853-2.862,8.853-8.12,0-5.325-3.594-8.187-9.251-8.187Z" />
  <path d="M573.584,49.9c13.777,0,24.227,11.049,24.227,24.76,0,13.845-10.384,24.76-24.227,24.76S549.356,88.5,549.356,74.657C549.356,61.012,559.739,49.9,573.584,49.9Zm0,45.926c11.914,0,20.233-9.252,20.233-21.166,0-11.847-8.319-21.166-20.233-21.166-11.848,0-20.3,9.319-20.3,21.166C553.283,86.571,561.736,95.823,573.584,95.823Z" />
  <path d="M626.625,61.545a13.314,13.314,0,0,1-1.332-1.664c.067.8.134,1.8.134,3.062V98.618h-3.86V49.9h.066l31.283,37.872c.465.6,1.065,1.265,1.331,1.664-.067-.732-.067-1.8-.067-3.061V50.762h3.794V99.417h-.066Z" />
  <path d="M685.391,98.618V50.7h28.42v3.261h-24.56v18.77h20.9v3.261h-20.9V95.357H714.81v3.261Z" />
</svg>